<svg width="120" height="179" viewBox="0 0 120 179" fill="none" xmlns="http://www.w3.org/2000/svg">
<path d="M19.3169 51.7425C30.185 50.6979 35.8811 47.0926 39.095 43.8756C41.4388 41.5369 41.8313 40.1677 46.9736 33.5858C52.953 26.8781 54.3354 28.2604 57.1828 27.3389C59.8628 28.1986 60.228 36.9517 52.8903 44.0328C49.8247 47.0002 45.8394 48.4423 39.4016 50.7811C34.1999 52.6761 31.3816 52.9627 30.3729 53.0459C25.6459 53.4434 21.7496 52.5282 19.3169 51.7425Z" fill="white"/>
<path d="M47.4239 49.2364L48.947 51.821L47.4239 49.2364ZM53.8747 13.9985L51.0159 14.9082L53.8747 13.9985ZM58.8288 6.26827C60.4246 5.82248 61.3568 4.16747 60.911 2.57172C60.4652 0.975964 58.8102 0.0437405 57.2144 0.489538L58.8288 6.26827ZM15.6901 57.0629C19.8385 56.9809 26.4157 56.638 32.73 55.8711C35.8864 55.4877 39.0255 54.9927 41.7853 54.3579C44.4821 53.7376 47.0645 52.9304 48.947 51.821L45.9009 46.6518C44.8345 47.2802 42.9858 47.9251 40.4404 48.5106C37.958 49.0816 35.0437 49.546 32.0066 49.9148C25.9339 50.6524 19.5634 50.9852 15.5716 51.0641L15.6901 57.0629ZM48.947 51.821C57.3269 46.8829 61.0216 37.6364 61.0216 31.8588H55.0216C55.0216 35.7355 52.2656 42.9011 45.9009 46.6518L48.947 51.821ZM61.0216 31.8588C61.0216 29.4984 60.2268 25.7654 59.3761 22.3788C58.4942 18.868 57.4395 15.3078 56.7335 13.0889L51.0159 14.9082C51.6922 17.0337 52.7109 20.4727 53.5569 23.8406C54.4341 27.3327 55.0216 30.3576 55.0216 31.8588H61.0216ZM56.7335 13.0889C56.289 11.6921 56.0807 10.0097 56.3918 8.68811C56.6498 7.5916 57.232 6.71437 58.8288 6.26827L57.2144 0.489538C53.282 1.58811 51.2532 4.33122 50.5513 7.31361C49.9024 10.0709 50.3852 12.926 51.0159 14.9082L56.7335 13.0889Z" fill="white"/>
<path d="M13.8234 53.8849C11.9738 54.3696 25.1111 54.3696 25.1111 54.3696M13.8234 53.8849L25.1111 54.3696M13.8234 53.8849C18.9097 51.462 22.0712 50.0072 27.695 44.1906C33.7061 36.9206 39.0689 26.8805 55.9006 24.8014C55.9006 24.8014 73.2597 21.5745 84.8277 39.4308C96.3957 57.2871 111.491 90.8551 111.491 90.8551C113.324 95.3868 115.068 100.925 116.083 107.341C118.369 121.766 115.935 133.859 113.649 141.449C112.063 145.795 109.392 151.231 104.801 156.564C91.4689 172.024 72.0773 174.775 66.4706 175.372C66.4706 175.372 35.5306 179.987 14.3949 154.942C14.3949 154.942 -5.73582 135.612 9.1134 93.2328C9.1134 93.2328 20.532 65.8405 25.1111 54.3696" stroke="white" stroke-width="6" stroke-miterlimit="10"/>
<path d="M50.4304 107.581C44.4868 111.163 41.2106 116.815 40.2366 119.056C39.6953 120.281 38.6694 123.355 38.6694 128.511C38.6694 132.86 39.2499 136.204 41.2466 139.609C43.3338 143.167 45.8 144.71 49.5955 145.935C54.1405 147.402 57.0626 147.402 61.6545 146.611C64.1946 146.174 66.2933 145.54 69.2154 143.563C71.8685 141.768 75.0127 137.233 75.4302 132.093C75.8476 126.953 75.0128 120.626 72.0906 115.09C70.0034 111.137 66.227 107.905 63.3517 106.722C60.4764 105.539 55.0222 104.814 50.4304 107.581Z" fill="white" stroke="white"/>
<path fill-rule="evenodd" clip-rule="evenodd" d="M38.9797 59.9572C35.8167 60.741 32.9793 61.162 30.67 61.391C27.5873 69.5211 16.5135 96.8479 16.5135 96.8479C4.09243 133.317 20.932 149.959 20.932 149.959C38.6161 171.518 64.5089 167.542 64.5089 167.542C98.4041 163.444 103.245 138.243 103.245 138.243C112.092 118.156 102.194 94.7991 102.194 94.7991C102.194 94.7991 89.567 65.9014 79.8854 50.5353C72.5043 38.8202 66.8833 35.2871 64.6288 34.2695C64.1259 36.3781 63.436 38.9592 62.6289 40.6551C61.2466 43.5598 59.5526 46.5863 58.0213 48.4009C57.9349 48.5032 57.8505 48.6034 57.7676 48.7019C56.0821 50.7041 55.0069 51.9813 49.9279 55.8782C46.0468 58.1962 42.6719 59.0372 39.0278 59.9453L38.9797 59.9572ZM59.8652 150.547C68.6197 150.063 78.4803 144.35 79.2175 129.246C80.139 110.365 72.7667 104.556 69.0806 101.651C65.3944 98.7467 57.7252 96.413 50.1886 99.713C44.6594 102.134 40.0515 105.524 36.8263 110.849C33.7665 115.901 31.2976 131.183 36.3661 139.897C41.4346 148.611 53.8752 151.031 59.8652 150.547Z" fill="white"/>
</svg>
