<svg width="250" height="227" viewBox="0 0 250 227" fill="none" xmlns="http://www.w3.org/2000/svg">
<path d="M10 10L10 217" stroke="white" stroke-width="20" stroke-linecap="round"/>
<path d="M239.582 217L10.9608 217" stroke="white" stroke-width="20" stroke-linecap="round"/>
<path d="M94.6816 44.1094C94.6816 41.9002 96.4725 40.1094 98.6816 40.1094H130.2C132.409 40.1094 134.2 41.9002 134.2 44.1094V215.118H94.6816V44.1094Z" fill="white"/>
<path d="M36.3452 93.0361C36.3452 90.827 38.1361 89.0361 40.3452 89.0361H71.8634C74.0725 89.0361 75.8634 90.827 75.8634 93.0361V215.118H36.3452V93.0361Z" fill="white"/>
<path d="M156.782 64.8096C156.782 62.6004 158.573 60.8096 160.782 60.8096H192.3C194.509 60.8096 196.3 62.6004 196.3 64.8096V215.119H156.782V64.8096Z" fill="white"/>
</svg>
