<svg width="133" height="133" viewBox="0 0 133 133" fill="none" xmlns="http://www.w3.org/2000/svg">
<path fill-rule="evenodd" clip-rule="evenodd" d="M66.5 133C103.227 133 133 103.227 133 66.5C133 29.7731 103.227 0 66.5 0C29.7731 0 0 29.7731 0 66.5C0 103.227 29.7731 133 66.5 133ZM66.5 129C101.018 129 129 101.018 129 66.5C129 31.9822 101.018 4 66.5 4C31.9822 4 4 31.9822 4 66.5C4 101.018 31.9822 129 66.5 129Z" fill="white"/>
<path d="M33.9294 85.6619H91.8462C99.4394 85.6619 105.616 79.882 105.616 72.777C105.616 65.6763 99.4394 59.9007 91.8462 59.9007C91.492 59.9007 91.1033 59.9137 90.6584 59.9482C90.0321 59.9957 89.4145 59.7755 88.9609 59.3396C88.5117 58.9036 88.2742 58.2993 88.3044 57.6734C88.3174 57.4403 88.3217 57.2029 88.3217 56.9741C88.3217 49.4547 81.7867 43.3381 73.7529 43.3381C67.9478 43.3381 62.6999 46.5669 60.3848 51.5568C60.0997 52.1655 59.5512 52.6101 58.8946 52.7655C58.2381 52.9165 57.5427 52.7612 57.0158 52.3424C55.1542 50.8576 52.7872 50.0374 50.3425 50.0374C44.6757 50.0374 40.067 54.341 40.067 59.6288C40.067 60.1899 40.1189 60.764 40.2269 61.3252C40.3737 62.0719 40.1146 62.8403 39.5401 63.3496C38.9656 63.859 38.1666 64.0317 37.4323 63.8072C36.2963 63.4576 35.1172 63.2806 33.9294 63.2806C27.5628 63.2806 22.3797 68.3007 22.3797 74.4691C22.3797 80.6417 27.5628 85.6619 33.9294 85.6619ZM33.9294 58.9424C34.5211 58.9424 35.1129 58.977 35.696 59.0374C36.0199 51.6302 42.4685 45.6993 50.3425 45.6993C52.9038 45.6993 55.4177 46.3424 57.6205 47.5424C61.0413 42.2849 67.1228 39 73.7529 39C83.7087 39 91.8937 46.3165 92.6496 55.5755C102.286 55.977 110 63.5396 110 72.777C110 82.2734 101.854 90 91.8462 90H33.9294C25.144 90 18 83.0331 18 74.4691C18 65.9094 25.144 58.9424 33.9294 58.9424Z" fill="white"/>
</svg>
