<svg width="187" height="187" viewBox="0 0 187 187" fill="none" xmlns="http://www.w3.org/2000/svg">
<path fill-rule="evenodd" clip-rule="evenodd" d="M93.5 187C145.139 187 187 145.139 187 93.5C187 41.8614 145.139 0 93.5 0C41.8614 0 0 41.8614 0 93.5C0 145.139 41.8614 187 93.5 187ZM93.5 174.346C138.15 174.346 174.346 138.15 174.346 93.5C174.346 48.8501 138.15 12.6541 93.5 12.6541C48.8501 12.6541 12.6541 48.8501 12.6541 93.5C12.6541 138.15 48.8501 174.346 93.5 174.346Z" fill="white"/>
<path d="M48.8346 113.958H130.267C140.943 113.958 144.5 107.61 144.5 100.784C144.5 93.958 137.863 91.1462 130 89.5C129.513 89.398 128 89 127.467 88.9206C126.5 88.7765 125.718 88.6778 125.08 88.0648C124.449 87.4518 124.115 86.6021 124.157 85.7221C124.175 85.3944 124.181 85.0606 124.181 84.7389C124.181 74.1665 114.993 65.5665 103.697 65.5665C95.5355 65.5665 88.1568 70.1062 84.9018 77.1222C84.5009 77.9779 83.7297 78.603 82.8066 78.8215C81.8835 79.0339 80.9058 78.8154 80.1649 78.2267C77.5474 76.139 74.2195 74.9858 70.7822 74.9858C62.8145 74.9858 57.5196 78.9672 57.5196 86.4019C57.5196 87.1908 57.5 87.458 57.5 88.958C57.5 90.458 56.7692 90.9841 55.9615 91.7002C55.1538 92.4164 53.4379 92.7259 52.4055 92.4103C50.8083 91.9187 49.1504 91.6699 47.4804 91.6699C37.7753 92.4103 37 100.784 37 104.958C37 108.458 39.8831 113.958 48.8346 113.958ZM47.7051 81.3323C48.5371 81.3323 49.3691 81.3809 50.1889 81.4659C50.6444 71.0512 59.7112 62.7123 70.7822 62.7123C74.3834 62.7123 77.9179 63.6166 81.0151 65.3038C85.8248 57.9116 94.3755 53.293 103.697 53.293C117.696 53.293 129.204 63.5801 130.267 76.5984C143.815 77.1629 154.661 87.796 154.661 100.784C154.661 114.136 143.208 125 129.137 125H47.7051C35.3527 125 25.3081 115.204 25.3081 103.163C25.3081 91.1279 35.3527 81.3323 47.7051 81.3323Z" fill="white"/>
</svg>
