<svg width="228" height="228" viewBox="0 0 228 228" fill="none" xmlns="http://www.w3.org/2000/svg">
<path fill-rule="evenodd" clip-rule="evenodd" d="M56.5 171.504C54.5 169.504 64.0813 113.777 65.2906 110.89C66.5 108.004 170.868 0.503879 176.184 0.0038787C181.5 -0.496121 228.5 47.5039 228 51.8163C227.5 56.1287 122.5 161.504 117.106 162.703C99.2376 166.47 62.1 173.504 56.5 171.504ZM155.14 42.1625L185.853 72.8736L113.562 145.16L82.8496 114.449L155.14 42.1625ZM196.405 62.3227L165.691 31.6116L176.192 21.1052L206.912 51.8234L196.405 62.3227ZM77.4312 130.125L97.8849 150.577L73.6981 154.311L77.4312 130.125Z" fill="white"/>
<path fill-rule="evenodd" clip-rule="evenodd" d="M204.345 124.004C204.345 124.004 204.5 122.504 203.5 121.504C202.5 120.504 192 120.504 190.5 121.504C189 122.504 189.419 124.004 189.419 124.004V186.72C189.419 201.208 177.54 213.086 163.059 213.086H41.2861C26.7971 213.086 14.9189 201.208 14.9189 186.72V64.9554C14.9189 50.4673 26.7971 38.5899 41.2861 38.5899H104.5C104.5 38.5899 105.428 38.5899 106.5 37.5039C107.572 36.4179 107.203 25.5376 106.5 24.5039C105.798 23.4702 104.5 23.6713 104.5 23.6713H41.2861C18.5648 23.6713 0 42.2355 0 64.9554V186.72C0 209.44 18.5648 228.004 41.2861 228.004H163.059C185.78 228.004 204.345 209.44 204.345 186.72V124.004Z" fill="white"/>
</svg>
