<svg width="243" height="185" viewBox="0 0 243 185" fill="none" xmlns="http://www.w3.org/2000/svg">
<path d="M120.493 6.24697L120.493 0.246969L120.493 6.24697ZM203.968 82.3704C206.76 84.1552 210.471 83.3389 212.256 80.547L241.342 35.0499C243.127 32.258 242.31 28.5478 239.519 26.7629C236.727 24.978 233.016 25.7943 231.232 28.5863L205.377 69.0281L164.935 43.1735C162.143 41.3886 158.433 42.205 156.648 44.9969C154.863 47.7888 155.68 51.4991 158.471 53.2839L203.968 82.3704ZM122.624 178.237L122.624 172.237L122.624 178.237ZM39.1506 102.11C36.3587 100.325 32.6485 101.141 30.8634 103.933L1.77508 149.429C-0.00993148 152.22 0.806274 155.931 3.59812 157.716C6.38997 159.501 10.1002 158.685 11.8853 155.893L37.7416 115.452L78.1823 141.308C80.9741 143.093 84.6844 142.277 86.4694 139.485C88.2544 136.693 87.4382 132.983 84.6464 131.198L39.1506 102.11ZM35.9185 77.3147C41.8131 78.4347 41.8126 78.4372 41.8122 78.4394C41.8121 78.4398 41.8117 78.4418 41.8116 78.4426C41.8113 78.4442 41.8112 78.4447 41.8113 78.4441C41.8115 78.443 41.8125 78.4377 41.8144 78.4282C41.8181 78.4093 41.8253 78.3737 41.8359 78.3222C41.8572 78.219 41.8925 78.0516 41.9433 77.8244C42.0448 77.3698 42.2077 76.6764 42.4425 75.7785C42.9123 73.9813 43.6676 71.3733 44.7902 68.2258C47.0419 61.9128 50.7356 53.5311 56.4926 45.1879C67.906 28.6474 87.3669 12.2463 120.493 12.247L120.493 0.246969C82.5481 0.246192 59.7219 19.3789 46.6158 38.3726C40.113 47.7966 35.9889 57.182 33.4877 64.1945C32.2339 67.7097 31.3789 70.6539 30.8327 72.7433C30.5594 73.7887 30.3628 74.6223 30.2318 75.2087C30.1663 75.502 30.1172 75.7337 30.083 75.8995C30.0659 75.9823 30.0526 76.0487 30.0428 76.0981C30.0379 76.1228 30.0339 76.1432 30.0308 76.1594C30.0292 76.1674 30.0279 76.1744 30.0267 76.1803C30.0262 76.1832 30.0255 76.1868 30.0252 76.1883C30.0246 76.1916 30.024 76.1947 35.9185 77.3147ZM120.493 12.247C153.645 12.2476 173.669 28.6784 185.629 45.2876C191.652 53.6528 195.606 62.0528 198.05 68.375C199.27 71.5276 200.105 74.14 200.629 75.9404C200.891 76.8399 201.076 77.5348 201.191 77.9906C201.249 78.2185 201.289 78.3865 201.314 78.4903C201.326 78.5422 201.334 78.578 201.339 78.5972C201.341 78.6068 201.342 78.6123 201.342 78.6135C201.343 78.6141 201.343 78.6137 201.342 78.6122C201.342 78.6114 201.342 78.6095 201.342 78.6091C201.341 78.6069 201.34 78.6045 207.2 77.3151C213.06 76.0258 213.059 76.0228 213.059 76.0195C213.058 76.0181 213.058 76.0145 213.057 76.0116C213.056 76.0058 213.054 75.9989 213.052 75.9909C213.049 75.9749 213.044 75.9546 213.039 75.93C213.027 75.8809 213.012 75.8148 212.993 75.7322C212.954 75.5671 212.898 75.336 212.824 75.0434C212.675 74.4583 212.454 73.6263 212.15 72.5826C211.542 70.4965 210.6 67.5568 209.243 64.0469C206.535 57.044 202.137 47.6773 195.367 38.2756C181.741 19.3511 158.411 0.247745 120.493 0.246969L120.493 12.247ZM207.2 107.165C201.306 106.045 201.306 106.042 201.307 106.04C201.307 106.04 201.307 106.038 201.307 106.037C201.308 106.035 201.308 106.035 201.308 106.035C201.307 106.036 201.306 106.042 201.305 106.051C201.301 106.07 201.294 106.106 201.283 106.157C201.262 106.26 201.226 106.428 201.176 106.655C201.074 107.11 200.911 107.803 200.676 108.701C200.206 110.498 199.451 113.106 198.328 116.254C196.077 122.567 192.383 130.949 186.625 139.293C175.212 155.834 155.75 172.236 122.624 172.237L122.624 184.237C160.569 184.236 183.396 165.102 196.502 146.108C203.005 136.684 207.13 127.298 209.631 120.285C210.885 116.77 211.74 113.826 212.286 111.736C212.559 110.691 212.756 109.857 212.887 109.271C212.953 108.978 213.002 108.746 213.036 108.58C213.053 108.497 213.066 108.431 213.076 108.382C213.081 108.357 213.085 108.336 213.088 108.32C213.09 108.312 213.091 108.305 213.092 108.299C213.093 108.296 213.093 108.293 213.094 108.291C213.094 108.288 213.095 108.285 207.2 107.165ZM122.624 172.237C89.4722 172.237 69.4483 155.806 57.4892 139.196C51.466 130.83 47.5129 122.429 45.0683 116.106C43.8492 112.953 43.0143 110.341 42.4896 108.54C42.2274 107.64 42.0433 106.946 41.9278 106.49C41.87 106.262 41.8295 106.094 41.805 105.99C41.7927 105.938 41.7845 105.902 41.7801 105.883C41.7779 105.873 41.7767 105.868 41.7764 105.867C41.7763 105.866 41.7764 105.867 41.7767 105.868C41.7769 105.869 41.7773 105.871 41.7774 105.871C41.7779 105.873 41.7784 105.876 35.9185 107.165C30.0587 108.454 30.0593 108.457 30.06 108.46C30.0604 108.462 30.0611 108.465 30.0618 108.468C30.0631 108.474 30.0646 108.481 30.0664 108.489C30.07 108.505 30.0746 108.525 30.0802 108.55C30.0914 108.599 30.1066 108.665 30.1261 108.747C30.1651 108.913 30.2211 109.144 30.2952 109.436C30.4434 110.022 30.6646 110.854 30.9688 111.897C31.5767 113.984 32.5185 116.924 33.8757 120.434C36.5836 127.437 40.9812 136.805 47.7506 146.207C61.3768 165.133 84.7058 184.238 122.624 184.237L122.624 172.237Z" fill="white"/>
</svg>
