<svg width="157" height="127" viewBox="0 0 157 127" fill="none" xmlns="http://www.w3.org/2000/svg">
<path d="M78 3.00275L77.9999 6.00275L78 3.00275ZM137.384 55.5279C138.78 56.4203 140.635 56.0121 141.528 54.6162L156.071 31.8677C156.963 30.4717 156.555 28.6166 155.159 27.7241C153.763 26.8317 151.908 27.2399 151.016 28.6358L138.088 48.8567L117.867 35.9294C116.471 35.037 114.616 35.4452 113.724 36.8412C112.831 38.2371 113.24 40.0922 114.636 40.9847L137.384 55.5279ZM79.4995 124L79.4994 121L79.4995 124ZM20.1167 71.4725C18.7208 70.58 16.8656 70.9881 15.9731 72.384L1.42894 95.1319C0.536434 96.5278 0.944537 98.3829 2.34046 99.2754C3.73638 100.168 5.59152 99.7598 6.48403 98.3639L19.4122 78.1436L39.6325 91.0717C41.0285 91.9642 42.8836 91.5561 43.7761 90.1602C44.6686 88.7643 44.2605 86.9091 42.8646 86.0166L20.1167 71.4725ZM18.5007 53C21.4479 53.56 21.4477 53.5612 21.4475 53.5622C21.4475 53.5623 21.4473 53.5631 21.4473 53.5633C21.4472 53.5636 21.4473 53.5632 21.4475 53.562C21.448 53.5597 21.449 53.5545 21.4506 53.5462C21.4539 53.5298 21.4595 53.5017 21.4677 53.4622C21.4839 53.3832 21.5102 53.259 21.5474 53.0924C21.6219 52.7591 21.7399 52.2571 21.909 51.6104C22.2473 50.3163 22.7888 48.4473 23.5919 46.1956C25.2014 41.6831 27.8438 35.6843 31.9698 29.7048C40.1715 17.8186 54.205 6.00226 77.9999 6.00275L78 0.0027484C51.7956 0.00221202 36.0795 13.1844 27.0314 26.2972C22.5325 32.8171 19.6749 39.3177 17.9406 44.1799C17.0719 46.6155 16.4806 48.6526 16.1041 50.0928C15.9157 50.8132 15.7808 51.3854 15.6917 51.7845C15.6471 51.9842 15.6139 52.1406 15.5912 52.2509C15.5799 52.306 15.5711 52.3496 15.5648 52.3812C15.5617 52.397 15.5592 52.4099 15.5573 52.4197C15.5563 52.4246 15.5555 52.4287 15.5549 52.4321C15.5546 52.4338 15.5542 52.4358 15.554 52.4366C15.5537 52.4384 15.5534 52.44 18.5007 53ZM77.9999 6.00275C101.808 6.00324 116.232 17.8345 124.815 29.7549C129.129 35.7454 131.955 41.7533 133.702 46.2703C134.574 48.5246 135.172 50.3957 135.549 51.6914C135.738 52.3389 135.872 52.8417 135.956 53.1756C135.998 53.3425 136.029 53.4671 136.047 53.5464C136.057 53.586 136.063 53.6143 136.067 53.6308C136.069 53.6391 136.07 53.6445 136.07 53.6468C136.071 53.648 136.071 53.6484 136.071 53.6481C136.071 53.648 136.071 53.6472 136.071 53.6471C136.07 53.6461 136.07 53.6449 139 53.0003C141.93 52.3556 141.93 52.354 141.929 52.3523C141.929 52.3515 141.929 52.3495 141.928 52.3478C141.927 52.3445 141.927 52.3404 141.925 52.3355C141.923 52.3258 141.92 52.313 141.917 52.2972C141.91 52.2657 141.9 52.2223 141.887 52.1673C141.861 52.0574 141.823 51.9013 141.772 51.702C141.671 51.3035 141.52 50.7321 141.31 50.0125C140.891 48.574 140.239 46.5392 139.298 44.1063C137.42 39.2489 134.371 32.7577 129.684 26.2489C120.267 13.1708 104.191 0.00328449 78 0.0027484L77.9999 6.00275ZM139 74C136.053 73.4399 136.053 73.4387 136.053 73.4377C136.053 73.4376 136.053 73.4368 136.053 73.4366C136.053 73.4363 136.053 73.4367 136.053 73.4379C136.053 73.4402 136.052 73.4454 136.05 73.4537C136.047 73.4701 136.041 73.4982 136.033 73.5377C136.017 73.6167 135.99 73.741 135.953 73.9075C135.879 74.2408 135.761 74.7428 135.592 75.3895C135.253 76.6837 134.712 78.5527 133.909 80.8045C132.299 85.3171 129.656 91.3161 125.53 97.2959C117.328 109.183 103.294 121 79.4994 121L79.4995 127C105.704 127 121.42 113.817 130.469 100.704C134.968 94.1834 137.825 87.6825 139.56 82.8203C140.429 80.3846 141.02 78.3475 141.397 76.9073C141.585 76.1868 141.72 75.6147 141.809 75.2155C141.854 75.0159 141.887 74.8594 141.909 74.7492C141.921 74.694 141.93 74.6505 141.936 74.6188C141.939 74.603 141.941 74.5902 141.943 74.5804C141.944 74.5754 141.945 74.5713 141.946 74.5679C141.946 74.5662 141.946 74.5643 141.947 74.5634C141.947 74.5616 141.947 74.5601 139 74ZM79.4994 121C55.6914 121.001 41.268 109.169 32.685 97.2476C28.3717 91.2567 25.5454 85.2482 23.7987 80.7308C22.927 78.4763 22.3288 76.605 21.9512 75.3092C21.7624 74.6616 21.6291 74.1588 21.5445 73.8249C21.5023 73.6579 21.4722 73.5333 21.4535 73.4541C21.4441 73.4144 21.4376 73.3861 21.4338 73.3696C21.4319 73.3613 21.4307 73.3559 21.4302 73.3536C21.4299 73.3524 21.4298 73.352 21.4299 73.3523C21.4299 73.3524 21.4301 73.3532 21.4301 73.3533C21.4304 73.3543 21.4306 73.3555 18.5007 74C15.5707 74.6445 15.5711 74.6461 15.5715 74.6478C15.5716 74.6487 15.5721 74.6506 15.5724 74.6523C15.5732 74.6557 15.5741 74.6598 15.5752 74.6646C15.5774 74.6744 15.5803 74.6872 15.5838 74.7029C15.591 74.7344 15.601 74.7778 15.614 74.8328C15.64 74.9428 15.6778 75.0989 15.7283 75.2982C15.8292 75.6967 15.981 76.2682 16.1908 76.9878C16.61 78.4264 17.2617 80.4614 18.2025 82.8946C20.0807 87.7523 23.1292 94.2441 27.8157 100.753C37.2323 113.832 53.3082 127.001 79.4995 127L79.4994 121Z" fill="white"/>
</svg>
