<svg width="133" height="133" viewBox="0 0 133 133" fill="none" xmlns="http://www.w3.org/2000/svg">
<path fill-rule="evenodd" clip-rule="evenodd" d="M66.5 133C103.227 133 133 103.227 133 66.5C133 29.7731 103.227 0 66.5 0C29.7731 0 0 29.7731 0 66.5C0 103.227 29.7731 133 66.5 133ZM66.5 129C101.018 129 129 101.018 129 66.5C129 31.9822 101.018 4 66.5 4C31.9822 4 4 31.9822 4 66.5C4 101.018 31.9822 129 66.5 129Z" fill="white"/>
<path d="M38.8787 89.3758C37.7071 90.5473 37.7071 92.4468 38.8787 93.6184C40.0503 94.79 41.9497 94.79 43.1213 93.6184L38.8787 89.3758ZM93.4975 41.9996C93.4975 40.3427 92.1543 38.9996 90.4975 38.9996H63.4975C61.8406 38.9996 60.4975 40.3427 60.4975 41.9996C60.4975 43.6565 61.8406 44.9996 63.4975 44.9996H87.4975V68.9996C87.4975 70.6565 88.8406 71.9996 90.4975 71.9996C92.1543 71.9996 93.4975 70.6565 93.4975 68.9996V41.9996ZM43.1213 93.6184L67.8701 68.8697L63.6274 64.627L38.8787 89.3758L43.1213 93.6184ZM67.8701 68.8697L92.6188 44.1209L88.3761 39.8783L63.6274 64.627L67.8701 68.8697Z" fill="white"/>
</svg>
