<svg width="177" height="177" viewBox="0 0 177 177" fill="none" xmlns="http://www.w3.org/2000/svg">
<path fill-rule="evenodd" clip-rule="evenodd" d="M88.5 177C137.377 177 177 137.377 177 88.5C177 39.6228 137.377 0 88.5 0C39.6228 0 0 39.6228 0 88.5C0 137.377 39.6228 177 88.5 177ZM88.5 161.03C128.557 161.03 161.03 128.557 161.03 88.5C161.03 48.4427 128.557 15.9699 88.5 15.9699C48.4427 15.9699 15.9699 48.4427 15.9699 88.5C15.9699 128.557 48.4427 161.03 88.5 161.03Z" fill="white"/>
<path d="M50.3213 117.524C47.9782 119.867 47.9782 123.666 50.3213 126.009C52.6645 128.352 56.4635 128.352 58.8066 126.009L50.3213 117.524ZM126.437 55.894C126.437 52.5803 123.75 49.894 120.437 49.894H66.4365C63.1228 49.894 60.4365 52.5803 60.4365 55.894C60.4365 59.2077 63.1228 61.894 66.4365 61.894H114.437V109.894C114.437 113.208 117.123 115.894 120.437 115.894C123.75 115.894 126.437 113.208 126.437 109.894V55.894ZM58.8066 126.009L91.7429 93.073L83.2576 84.5877L50.3213 117.524L58.8066 126.009ZM91.7429 93.073L124.679 60.1367L116.194 51.6514L83.2576 84.5877L91.7429 93.073Z" fill="white"/>
</svg>
