<svg width="115" height="126" viewBox="0 0 115 126" fill="none" xmlns="http://www.w3.org/2000/svg">
<path d="M0 15.75C0 7.06289 6.65423 0 14.8387 0H51.9355V31.5C51.9355 35.8559 55.251 39.375 59.3548 39.375H89.0323V74.8125H40.8064C32.622 74.8125 25.9677 81.8754 25.9677 90.5625V126H14.8387C6.65423 126 0 118.937 0 110.25V15.75ZM89.0323 31.5H59.3548V0L89.0323 31.5ZM40.8064 86.625H48.2258C55.3901 86.625 61.2097 92.802 61.2097 100.406C61.2097 108.011 55.3901 114.188 48.2258 114.188H44.5161V122.062C44.5161 124.228 42.8468 126 40.8064 126C38.7661 126 37.0968 124.228 37.0968 122.062V110.25V90.5625C37.0968 88.3969 38.7661 86.625 40.8064 86.625ZM48.2258 106.312C51.3095 106.312 53.7903 103.679 53.7903 100.406C53.7903 97.1332 51.3095 94.5 48.2258 94.5H44.5161V106.312H48.2258ZM70.4839 86.625H77.9032C84.0474 86.625 89.0323 91.916 89.0323 98.4375V114.188C89.0323 120.709 84.0474 126 77.9032 126H70.4839C68.4436 126 66.7742 124.228 66.7742 122.062V90.5625C66.7742 88.3969 68.4436 86.625 70.4839 86.625ZM77.9032 118.125C79.9436 118.125 81.6129 116.353 81.6129 114.188V98.4375C81.6129 96.2719 79.9436 94.5 77.9032 94.5H74.1936V118.125H77.9032ZM96.4516 90.5625C96.4516 88.3969 98.121 86.625 100.161 86.625H111.29C113.331 86.625 115 88.3969 115 90.5625C115 92.7281 113.331 94.5 111.29 94.5H103.871V102.375H111.29C113.331 102.375 115 104.147 115 106.312C115 108.478 113.331 110.25 111.29 110.25H103.871V122.062C103.871 124.228 102.202 126 100.161 126C98.121 126 96.4516 124.228 96.4516 122.062V106.312V90.5625Z" fill="white"/>
</svg>
