<svg width="194" height="110" viewBox="0 0 194 110" fill="none" xmlns="http://www.w3.org/2000/svg">
<path d="M108.149 102.84C103.741 109.387 94.8658 111.129 88.3339 106.721C81.787 102.327 80.0442 93.4519 84.4526 86.9053C88.8463 80.3588 97.7215 78.616 104.268 83.0244C110.815 87.4182 112.558 96.2789 108.149 102.84Z" fill="white"/>
<path d="M123.947 25.7573L140.789 8.37341C128.679 3.25068 115.363 0.415039 101.374 0.415039C45.3839 0.415039 0 45.799 0 101.804C0 103.418 0.0469327 105.016 0.125154 106.598C9.79127 63.6425 52.4639 22.2954 98.3489 22.2954C107.216 22.2798 115.801 23.5016 123.947 25.7573Z" fill="white"/>
<path d="M160.465 19.4336L152.054 43.7275C158.32 47.6754 163.456 54.9324 168.641 60.1803H193.818C186.455 43.8411 174.878 29.7886 160.465 19.4336Z" fill="white"/>
<path d="M105.977 93.4904L92.8359 84.7443L154.358 6.86556C155.279 5.94402 155.758 6.49774 155.279 7.32623L105.977 93.4904Z" fill="white"/>
</svg>
