<svg width="153" height="144" viewBox="0 0 153 144" fill="none" xmlns="http://www.w3.org/2000/svg">
<path d="M1 25.166C18.5639 22.1583 24.0072 16.9875 25.166 1.00003" stroke="white"/>
<path d="M49.418 25.2061C31.854 22.1983 26.4108 17.0275 25.252 1.04007" stroke="white"/>
<path d="M49.418 25.333C31.854 28.3408 26.4108 33.5115 25.252 49.499" stroke="white"/>
<path d="M1 25.292C18.5639 28.2997 24.0072 33.4705 25.166 49.458" stroke="white"/>
<path d="M27 114.174C36.5833 112.534 39.5533 109.715 40.1855 101" stroke="white"/>
<path d="M53.418 114.196C43.8347 112.557 40.8647 109.738 40.2324 101.022" stroke="white"/>
<path d="M53.418 114.266C43.8347 115.905 40.8647 118.724 40.2324 127.44" stroke="white"/>
<path d="M27 114.243C36.5833 115.883 39.5533 118.702 40.1855 127.417" stroke="white"/>
<path d="M125 46.9785C130.804 45.9854 132.603 44.2782 132.986 38.9996" stroke="white"/>
<path d="M141 46.9922C135.196 45.9991 133.397 44.2919 133.014 39.0133" stroke="white"/>
<path d="M141 47.0342C135.196 48.0273 133.397 49.7345 133.014 55.0131" stroke="white"/>
<path d="M125 47.0205C130.804 48.0136 132.603 49.7208 132.986 54.9994" stroke="white"/>
<path d="M151.102 75.6968C101.917 82.9946 91.9946 92.9181 84.6952 142.103C84.3195 144.632 80.678 144.632 80.3023 142.103C73.0029 92.9207 63.0807 82.9976 13.8956 75.6968C11.3681 75.3217 11.3681 71.6783 13.8956 71.3032C63.0807 64.0054 73.0029 54.0819 80.3023 4.8972C80.678 2.3676 84.3195 2.3676 84.6952 4.8972C91.9946 54.0793 101.917 64.0024 151.102 71.3032C153.633 71.6783 153.633 75.3217 151.102 75.6968Z" fill="white"/>
</svg>
