<svg width="164" height="152" viewBox="0 0 164 152" fill="none" xmlns="http://www.w3.org/2000/svg">
<path d="M58.0833 1.41115C36.311 5.97512 22.7689 27.4107 28.1933 48.734C29.166 52.5125 31.1861 57.2261 33.3558 60.5929C34.927 63.0246 40.0895 68.5611 42.0347 69.8706C42.7456 70.3568 43.3441 70.8806 43.3441 70.9928C43.3441 71.1051 41.698 71.928 39.6779 72.7509C33.0191 75.5942 26.3228 80.0457 20.6366 85.3581C11.0223 94.2987 4.13899 106.607 1.4455 119.513C0.435445 124.376 -0.125696 133.092 0.0239417 140.986C0.13617 148.281 0.510265 149.515 2.94188 150.712C4.17639 151.348 7.95475 151.386 65.9769 151.386C125.009 151.386 127.777 151.348 129.012 150.712C129.835 150.263 130.658 149.403 131.182 148.393C131.967 146.822 132.005 146.298 132.005 138.816C132.005 130.137 131.593 125.049 130.508 119.513C126.356 99.0499 111.616 81.0558 92.2757 72.7885L88.6095 71.2173L92.1262 67.8878C96.3532 63.9225 98.3733 61.3036 100.656 56.8894C113.973 31.0395 94.9692 0.475916 65.7149 0.662964C63.0963 0.662964 60.2157 0.962239 58.0833 1.41115ZM74.5809 12.7462C79.0327 14.2426 82.3623 16.3749 86.0282 20.0785C88.6844 22.7345 89.5449 23.9317 91.0039 26.8496C93.3231 31.5631 93.9591 34.2942 93.9591 39.3444C93.9591 47.0506 91.4528 53.1485 85.9909 58.6477C81.5767 63.0993 77.3493 65.4561 71.7006 66.6159C65.3409 67.9251 59.5423 67.1395 53.4447 64.1469C50.0029 62.4635 49.0678 61.7901 46.1125 58.8346C43.3068 55.9916 42.4463 54.8693 40.9873 51.8764C38.7801 47.35 37.9945 44.0953 37.9945 39.3444C37.9945 34.5932 38.7801 31.3386 40.95 26.887C43.8679 20.9763 49.5916 15.739 55.6892 13.3448C59.3928 11.8484 61.9367 11.4743 66.9121 11.6239C70.7652 11.7362 72.1119 11.9232 74.5809 12.7462ZM76.6386 79.1855C96.0165 83.1135 111.579 96.6555 117.976 115.099C119.996 120.972 120.782 126.247 120.782 134.028V140.537H65.9769H11.172V134.065C11.172 122.356 13.3043 114.126 18.6539 105.148C27.3329 90.5206 41.5858 81.0558 58.6445 78.5868C63.5452 77.9134 71.5883 78.1379 76.6386 79.1855Z" fill="white"/>
<path d="M103.86 4.32827C105.111 6.2476 106.988 9.70235 107.998 11.9096C107.998 11.9096 109.265 15.0062 109.835 15.5555C110.405 16.1049 115.504 17.8343 115.504 17.8343C126.378 23.4483 130.276 36.4289 127.292 48.0889C125.368 55.5742 119.738 62.6278 112.858 66.1784C108.912 68.2417 107.854 69.2492 107.373 71.4565C106.459 76.0629 108.431 78.2701 115.504 80.4294C130.661 85.1318 142.16 94.8721 148.8 108.643C152.264 115.841 153.563 121.359 153.852 130.236L154.141 137.577H149.907C145.817 137.577 145.961 137.577 145.961 138.633C145.961 139.264 146.567 145.296 146.567 145.577C146.567 145.858 146.847 151.048 147.549 151.469C147.969 151.609 150.825 151.527 150.825 151.527C159.342 151.527 162.723 148.546 163.004 148.266C163.284 147.985 163.795 147.376 163.961 146.488C164.126 145.6 163.72 133.773 163.72 133.773C163.479 120.098 163.191 118.178 160.448 109.877C155.348 94.5706 144.089 80.9915 129.799 73.0744C127.922 72.0186 126.334 71.0111 126.334 70.8672C126.334 70.7232 127.537 69.0917 128.981 67.2683C132.349 63.094 135.092 57.8159 136.535 52.8736C137.497 49.6106 138.412 48.3272 138.363 41.7055C138.363 34.6519 137.786 31.8198 136.535 28.0772C133.311 18.2407 126.912 12.04 118.251 6.8098C112.477 3.30704 104.925 1.02626 103.523 0.825517C102.12 0.624771 102.12 0.545192 101.839 0.96599C101.559 1.38679 103.86 4.32827 103.86 4.32827Z" fill="white"/>
</svg>
