<svg width="129" height="193" viewBox="0 0 129 193" fill="none" xmlns="http://www.w3.org/2000/svg">
<path d="M20 55.4814C31.7934 54.3478 37.9745 50.4356 41.4621 46.9448C44.0054 44.4068 44.4313 42.9211 50.0114 35.7789C56.5 28.5 58 30 61.0899 29C63.998 29.9329 64.3944 39.4313 56.4319 47.1153C53.1053 50.3353 48.7807 51.9002 41.7948 54.4381C36.1502 56.4945 33.0919 56.8055 31.9973 56.8958C26.8679 57.3271 22.6398 56.334 20 55.4814Z" fill="#85A52B"/>
<path d="M50.5 52.7619L52.0231 55.3465L52.0231 55.3465L50.5 52.7619ZM57.5 14.5238L54.6412 15.4334L54.6412 15.4334L57.5 14.5238ZM62.8072 5.88937C64.4029 5.44357 65.3352 3.78857 64.8894 2.19281C64.4436 0.597058 62.7886 -0.335166 61.1928 0.110632L62.8072 5.88937ZM16.0593 60.9994C20.5542 60.9106 27.6826 60.5388 34.5242 59.7079C37.9443 59.2925 41.341 58.7567 44.324 58.0705C47.244 57.3989 50.015 56.5298 52.0231 55.3465L48.9769 50.1773C47.785 50.8797 45.7477 51.5864 42.9791 52.2232C40.2735 52.8455 37.1015 53.3508 33.8008 53.7516C27.2007 54.5533 20.2791 54.9148 15.9407 55.0006L16.0593 60.9994ZM52.0231 55.3465C61.0306 50.0385 65 40.0933 65 33.9048H59C59 38.1924 55.9694 46.0567 48.9769 50.1773L52.0231 55.3465ZM65 33.9048C65 31.3799 64.1464 27.3592 63.2221 23.6798C62.2667 19.8762 61.1236 16.018 60.3588 13.6142L54.6412 15.4334C55.3764 17.7439 56.4833 21.4809 57.4029 25.1416C58.3536 28.9265 59 32.2392 59 33.9048H65ZM60.3588 13.6142C59.8686 12.0735 59.6308 10.198 59.9827 8.70273C60.2816 7.43257 60.975 6.40122 62.8072 5.88937L61.1928 0.110632C57.025 1.27497 54.885 4.17219 54.1423 7.32823C53.4525 10.2592 53.9648 13.3074 54.6412 15.4334L60.3588 13.6142Z" fill="#33411B"/>
<path d="M14.0386 57.8063C12.0316 58.3322 26.2874 58.3322 26.2874 58.3322M14.0386 57.8063L26.2874 58.3322M14.0386 57.8063C19.5579 55.1771 22.9887 53.5984 29.0913 47.2866C35.6141 39.3975 41.4335 28.5026 59.6984 26.2466C59.6984 26.2466 78.5354 22.7449 91.0883 42.1215C103.641 61.4981 120.022 97.9241 120.022 97.9241C122.011 102.842 123.903 108.852 125.005 115.813C127.485 131.466 124.844 144.59 122.364 152.826C120.642 157.541 117.745 163.44 112.762 169.228C98.2951 186.004 77.2523 188.989 71.1683 189.637C71.1683 189.637 37.5941 194.645 14.6588 167.467C14.6588 167.467 -7.1859 146.492 8.92761 100.504C8.92761 100.504 21.3184 70.7798 26.2874 58.3322" stroke="#33411B" stroke-width="6" stroke-miterlimit="10"/>
<path d="M52.9957 111.443C45.4173 116.021 41.2401 123.244 39.9982 126.108C39.308 127.674 38 131.603 38 138.192C38 143.751 38.7402 148.025 41.286 152.376C43.9473 156.924 47.0918 158.896 51.9312 160.461C57.7263 162.336 61.4521 162.336 67.307 161.325C70.5456 160.766 73.2216 159.956 76.9473 157.429C80.3302 155.136 84.3392 149.339 84.8715 142.77C85.4038 136.2 84.3393 128.115 80.6134 121.04C77.9521 115.987 73.137 111.857 69.4709 110.345C65.8047 108.833 58.8505 107.906 52.9957 111.443Z" fill="#62442D" stroke="#62442D"/>
<path fill-rule="evenodd" clip-rule="evenodd" d="M41.3372 64.395C37.9048 65.2455 34.8257 65.7024 32.3197 65.9509C28.9741 74.7741 16.9582 104.426 16.9582 104.426C3.47957 144 21.7529 162.059 21.7529 162.059C40.9426 185.454 69.04 181.139 69.04 181.139C105.821 176.692 111.074 149.346 111.074 149.346C120.674 127.548 109.934 102.203 109.934 102.203C109.934 102.203 96.2316 70.8445 85.7257 54.1701C77.7163 41.4579 71.6168 37.6238 69.1702 36.5195C68.6246 38.8077 67.8759 41.609 67 43.4494C65.5 46.6014 63.6617 49.8857 62 51.8547C61.9076 51.9642 61.8173 52.0714 61.7286 52.1768L61.7248 52.1814C59.8958 54.354 58.729 55.74 53.2176 59.9687C49.006 62.4841 45.3437 63.3966 41.3894 64.382L41.3372 64.395ZM64.0004 162.698C73.5004 162.174 84.2005 155.974 85.0005 139.584C86.0005 119.096 78.0005 112.792 74.0005 109.64C70.0005 106.488 61.6783 103.955 53.5 107.536C47.5 110.164 42.4998 113.842 39 119.62C35.6797 125.103 33.0006 141.685 38.5006 151.141C44.0006 160.597 57.5004 163.224 64.0004 162.698Z" fill="#DBE082"/>
</svg>
