<svg width="486" height="170" viewBox="0 0 486 170" fill="none" xmlns="http://www.w3.org/2000/svg">
<g filter="url(#filter0_d_68_13)">
<mask id="path-1-outside-1_68_13" maskUnits="userSpaceOnUse" x="4" y="24" width="269" height="140" fill="black">
<rect fill="white" x="4" y="24" width="269" height="140"/>
<path d="M40.6 130.4C35 130.4 29.5867 128.953 24.36 126.06C19.2267 123.167 14.98 118.967 11.62 113.46C8.35333 107.953 6.72 101.233 6.72 93.3C6.72 85.3667 8.35333 78.6467 11.62 73.14C14.98 67.6333 19.2267 63.4333 24.36 60.54C29.5867 57.6467 35 56.2 40.6 56.2C45.5467 56.2 49.98 57.1333 53.9 59C57.82 60.8667 61.3667 63.48 64.54 66.84V32.54C64.54 30.6733 65.1467 29.1333 66.36 27.92C67.6667 26.7067 69.2067 26.1 70.98 26.1C72.7533 26.1 74.2467 26.7067 75.46 27.92C76.6733 29.1333 77.28 30.6733 77.28 32.54V123.4C77.28 125.173 76.6733 126.667 75.46 127.88C74.2467 129.093 72.7533 129.7 70.98 129.7C69.2067 129.7 67.6667 129.093 66.36 127.88C65.1467 126.667 64.54 125.173 64.54 123.4V119.76C61.3667 123.12 57.82 125.733 53.9 127.6C49.98 129.467 45.5467 130.4 40.6 130.4ZM42.42 118.5C46.9933 118.5 51.1467 117.52 54.88 115.56C58.6133 113.507 61.8333 110.987 64.54 108V78.6C61.8333 75.6133 58.6133 73.14 54.88 71.18C51.1467 69.1267 46.9933 68.1 42.42 68.1C35.7933 68.1 30.2867 70.2467 25.9 74.54C21.6067 78.74 19.46 84.9933 19.46 93.3C19.46 101.513 21.6067 107.767 25.9 112.06C30.2867 116.353 35.7933 118.5 42.42 118.5ZM105.4 43.04C103.44 43.04 101.76 42.34 100.36 40.94C98.9603 39.54 98.2603 37.86 98.2603 35.9V35.34C98.2603 33.38 98.9603 31.7 100.36 30.3C101.76 28.9 103.44 28.2 105.4 28.2H106.24C108.2 28.2 109.88 28.9 111.28 30.3C112.68 31.7 113.38 33.38 113.38 35.34V35.9C113.38 37.86 112.68 39.54 111.28 40.94C109.88 42.34 108.2 43.04 106.24 43.04H105.4ZM105.68 129.7C103.907 129.7 102.414 129.093 101.2 127.88C99.987 126.667 99.3803 125.173 99.3803 123.4V63.34C99.3803 61.4733 99.987 59.9333 101.2 58.72C102.414 57.5067 103.907 56.9 105.68 56.9C107.547 56.9 109.087 57.5067 110.3 58.72C111.514 59.9333 112.12 61.4733 112.12 63.34V123.4C112.12 125.173 111.514 126.667 110.3 127.88C109.087 129.093 107.547 129.7 105.68 129.7ZM150.204 161.9C148.524 161.9 147.077 161.293 145.864 160.08C144.744 158.867 144.184 157.42 144.184 155.74C144.184 154.9 144.324 154.153 144.604 153.5L153.704 130.12L127.384 66C127.29 65.6267 127.15 65.2067 126.964 64.74C126.87 64.2733 126.824 63.8067 126.824 63.34C126.824 61.5667 127.43 60.0733 128.644 58.86C129.857 57.5533 131.35 56.9 133.124 56.9C134.43 56.9 135.597 57.2733 136.624 58.02C137.744 58.7667 138.537 59.7 139.004 60.82L160.564 114.3L182.544 61.1C183.104 59.7933 183.85 58.7667 184.784 58.02C185.81 57.2733 187.024 56.9 188.424 56.9C190.197 56.9 191.69 57.5533 192.904 58.86C194.117 60.0733 194.724 61.5667 194.724 63.34C194.724 64.18 194.584 64.9733 194.304 65.72L156.084 157.56C155.524 158.773 154.777 159.8 153.844 160.64C152.91 161.48 151.697 161.9 150.204 161.9ZM240.402 130.4C229.015 130.4 220.102 127.18 213.662 120.74C207.315 114.207 204.142 105.06 204.142 93.3C204.142 86.9533 205.309 80.98 207.642 75.38C209.975 69.6867 213.615 65.0667 218.562 61.52C223.509 57.9733 229.855 56.2 237.602 56.2C244.789 56.2 250.855 57.88 255.802 61.24C260.749 64.5067 264.482 68.8 267.002 74.12C269.615 79.44 270.922 85.2267 270.922 91.48C270.922 93.2533 270.315 94.7467 269.102 95.96C267.982 97.1733 266.442 97.78 264.482 97.78H217.022C217.769 104.033 220.149 109.073 224.162 112.9C228.175 116.633 233.962 118.5 241.522 118.5C245.722 118.5 249.269 118.127 252.162 117.38C255.055 116.54 257.809 115.467 260.422 114.16C261.169 113.787 262.009 113.6 262.942 113.6C264.435 113.6 265.742 114.113 266.862 115.14C267.982 116.167 268.542 117.473 268.542 119.06C268.542 120.18 268.169 121.207 267.422 122.14C266.769 122.98 265.929 123.68 264.902 124.24C261.822 126.013 258.462 127.507 254.822 128.72C251.275 129.84 246.469 130.4 240.402 130.4ZM217.022 87.42H258.322C258.042 82.5667 256.782 78.6467 254.542 75.66C252.395 72.6733 249.782 70.48 246.702 69.08C243.622 67.68 240.589 66.98 237.602 66.98C234.615 66.98 231.582 67.68 228.502 69.08C225.422 70.48 222.809 72.6733 220.662 75.66C218.515 78.6467 217.302 82.5667 217.022 87.42Z"/>
</mask>
<path d="M40.6 130.4C35 130.4 29.5867 128.953 24.36 126.06C19.2267 123.167 14.98 118.967 11.62 113.46C8.35333 107.953 6.72 101.233 6.72 93.3C6.72 85.3667 8.35333 78.6467 11.62 73.14C14.98 67.6333 19.2267 63.4333 24.36 60.54C29.5867 57.6467 35 56.2 40.6 56.2C45.5467 56.2 49.98 57.1333 53.9 59C57.82 60.8667 61.3667 63.48 64.54 66.84V32.54C64.54 30.6733 65.1467 29.1333 66.36 27.92C67.6667 26.7067 69.2067 26.1 70.98 26.1C72.7533 26.1 74.2467 26.7067 75.46 27.92C76.6733 29.1333 77.28 30.6733 77.28 32.54V123.4C77.28 125.173 76.6733 126.667 75.46 127.88C74.2467 129.093 72.7533 129.7 70.98 129.7C69.2067 129.7 67.6667 129.093 66.36 127.88C65.1467 126.667 64.54 125.173 64.54 123.4V119.76C61.3667 123.12 57.82 125.733 53.9 127.6C49.98 129.467 45.5467 130.4 40.6 130.4ZM42.42 118.5C46.9933 118.5 51.1467 117.52 54.88 115.56C58.6133 113.507 61.8333 110.987 64.54 108V78.6C61.8333 75.6133 58.6133 73.14 54.88 71.18C51.1467 69.1267 46.9933 68.1 42.42 68.1C35.7933 68.1 30.2867 70.2467 25.9 74.54C21.6067 78.74 19.46 84.9933 19.46 93.3C19.46 101.513 21.6067 107.767 25.9 112.06C30.2867 116.353 35.7933 118.5 42.42 118.5ZM105.4 43.04C103.44 43.04 101.76 42.34 100.36 40.94C98.9603 39.54 98.2603 37.86 98.2603 35.9V35.34C98.2603 33.38 98.9603 31.7 100.36 30.3C101.76 28.9 103.44 28.2 105.4 28.2H106.24C108.2 28.2 109.88 28.9 111.28 30.3C112.68 31.7 113.38 33.38 113.38 35.34V35.9C113.38 37.86 112.68 39.54 111.28 40.94C109.88 42.34 108.2 43.04 106.24 43.04H105.4ZM105.68 129.7C103.907 129.7 102.414 129.093 101.2 127.88C99.987 126.667 99.3803 125.173 99.3803 123.4V63.34C99.3803 61.4733 99.987 59.9333 101.2 58.72C102.414 57.5067 103.907 56.9 105.68 56.9C107.547 56.9 109.087 57.5067 110.3 58.72C111.514 59.9333 112.12 61.4733 112.12 63.34V123.4C112.12 125.173 111.514 126.667 110.3 127.88C109.087 129.093 107.547 129.7 105.68 129.7ZM150.204 161.9C148.524 161.9 147.077 161.293 145.864 160.08C144.744 158.867 144.184 157.42 144.184 155.74C144.184 154.9 144.324 154.153 144.604 153.5L153.704 130.12L127.384 66C127.29 65.6267 127.15 65.2067 126.964 64.74C126.87 64.2733 126.824 63.8067 126.824 63.34C126.824 61.5667 127.43 60.0733 128.644 58.86C129.857 57.5533 131.35 56.9 133.124 56.9C134.43 56.9 135.597 57.2733 136.624 58.02C137.744 58.7667 138.537 59.7 139.004 60.82L160.564 114.3L182.544 61.1C183.104 59.7933 183.85 58.7667 184.784 58.02C185.81 57.2733 187.024 56.9 188.424 56.9C190.197 56.9 191.69 57.5533 192.904 58.86C194.117 60.0733 194.724 61.5667 194.724 63.34C194.724 64.18 194.584 64.9733 194.304 65.72L156.084 157.56C155.524 158.773 154.777 159.8 153.844 160.64C152.91 161.48 151.697 161.9 150.204 161.9ZM240.402 130.4C229.015 130.4 220.102 127.18 213.662 120.74C207.315 114.207 204.142 105.06 204.142 93.3C204.142 86.9533 205.309 80.98 207.642 75.38C209.975 69.6867 213.615 65.0667 218.562 61.52C223.509 57.9733 229.855 56.2 237.602 56.2C244.789 56.2 250.855 57.88 255.802 61.24C260.749 64.5067 264.482 68.8 267.002 74.12C269.615 79.44 270.922 85.2267 270.922 91.48C270.922 93.2533 270.315 94.7467 269.102 95.96C267.982 97.1733 266.442 97.78 264.482 97.78H217.022C217.769 104.033 220.149 109.073 224.162 112.9C228.175 116.633 233.962 118.5 241.522 118.5C245.722 118.5 249.269 118.127 252.162 117.38C255.055 116.54 257.809 115.467 260.422 114.16C261.169 113.787 262.009 113.6 262.942 113.6C264.435 113.6 265.742 114.113 266.862 115.14C267.982 116.167 268.542 117.473 268.542 119.06C268.542 120.18 268.169 121.207 267.422 122.14C266.769 122.98 265.929 123.68 264.902 124.24C261.822 126.013 258.462 127.507 254.822 128.72C251.275 129.84 246.469 130.4 240.402 130.4ZM217.022 87.42H258.322C258.042 82.5667 256.782 78.6467 254.542 75.66C252.395 72.6733 249.782 70.48 246.702 69.08C243.622 67.68 240.589 66.98 237.602 66.98C234.615 66.98 231.582 67.68 228.502 69.08C225.422 70.48 222.809 72.6733 220.662 75.66C218.515 78.6467 217.302 82.5667 217.022 87.42Z" fill="#85A52B"/>
<path d="M24.36 126.06L23.378 127.802L23.3847 127.806L23.3914 127.81L24.36 126.06ZM11.62 113.46L9.89989 114.48L9.90624 114.491L9.91272 114.502L11.62 113.46ZM11.62 73.14L9.91272 72.0983L9.90624 72.1089L9.89989 72.1196L11.62 73.14ZM24.36 60.54L23.3914 58.7902L23.3847 58.7939L23.378 58.7977L24.36 60.54ZM53.9 59L53.0401 60.8057L53.0401 60.8057L53.9 59ZM64.54 66.84L63.086 68.2132L66.54 71.8704V66.84H64.54ZM66.36 27.92L64.9991 26.4544L64.972 26.4796L64.9458 26.5058L66.36 27.92ZM75.46 27.92L76.8742 26.5058L76.8742 26.5058L75.46 27.92ZM75.46 127.88L76.8742 129.294L76.8742 129.294L75.46 127.88ZM66.36 127.88L64.9458 129.294L64.972 129.32L64.9991 129.346L66.36 127.88ZM64.54 119.76H66.54V114.73L63.086 118.387L64.54 119.76ZM53.9 127.6L53.0401 125.794L53.9 127.6ZM54.88 115.56L55.8097 117.331L55.8268 117.322L55.8438 117.312L54.88 115.56ZM64.54 108L66.022 109.343L66.54 108.771V108H64.54ZM64.54 78.6H66.54V77.8286L66.022 77.257L64.54 78.6ZM54.88 71.18L53.9162 72.9324L53.9332 72.9418L53.9503 72.9508L54.88 71.18ZM25.9 74.54L27.2986 75.9697L27.2989 75.9693L25.9 74.54ZM25.9 112.06L24.4858 113.474L24.4934 113.482L24.5011 113.489L25.9 112.06ZM40.6 128.4C35.3615 128.4 30.2793 127.051 25.3286 124.31L23.3914 127.81C28.8941 130.856 34.6385 132.4 40.6 132.4V128.4ZM25.342 124.318C20.534 121.608 16.5266 117.662 13.3273 112.418L9.91272 114.502C13.4334 120.272 17.9194 124.726 23.378 127.802L25.342 124.318ZM13.3401 112.44C10.2957 107.308 8.72 100.96 8.72 93.3H4.72C4.72 101.507 6.41092 108.599 9.89989 114.48L13.3401 112.44ZM8.72 93.3C8.72 85.6405 10.2957 79.2923 13.3401 74.1604L9.89989 72.1196C6.41092 78.001 4.72 85.0928 4.72 93.3H8.72ZM13.3273 74.1817C16.5266 68.9384 20.534 64.9923 25.342 62.2823L23.378 58.7977C17.9194 61.8744 13.4334 66.3283 9.91272 72.0983L13.3273 74.1817ZM25.3286 62.2898C30.2793 59.5492 35.3615 58.2 40.6 58.2V54.2C34.6385 54.2 28.8941 55.7441 23.3914 58.7902L25.3286 62.2898ZM40.6 58.2C45.2907 58.2 49.4239 59.0837 53.0401 60.8057L54.7599 57.1943C50.5361 55.183 45.8026 54.2 40.6 54.2V58.2ZM53.0401 60.8057C56.723 62.5595 60.0712 65.0212 63.086 68.2132L65.994 65.4667C62.6621 61.9388 58.917 59.1739 54.7599 57.1943L53.0401 60.8057ZM66.54 66.84V32.54H62.54V66.84H66.54ZM66.54 32.54C66.54 31.1524 66.9708 30.1376 67.7742 29.3342L64.9458 26.5058C63.3226 28.129 62.54 30.1943 62.54 32.54H66.54ZM67.7209 29.3856C68.6599 28.5136 69.7146 28.1 70.98 28.1V24.1C68.6988 24.1 66.6734 24.8997 64.9991 26.4544L67.7209 29.3856ZM70.98 28.1C72.2427 28.1 73.2213 28.5097 74.0458 29.3342L76.8742 26.5058C75.272 24.9036 73.2639 24.1 70.98 24.1V28.1ZM74.0458 29.3342C74.8492 30.1376 75.28 31.1524 75.28 32.54H79.28C79.28 30.1943 78.4974 28.129 76.8742 26.5058L74.0458 29.3342ZM75.28 32.54V123.4H79.28V32.54H75.28ZM75.28 123.4C75.28 124.663 74.8703 125.641 74.0458 126.466L76.8742 129.294C78.4764 127.692 79.28 125.684 79.28 123.4H75.28ZM74.0458 126.466C73.2213 127.29 72.2427 127.7 70.98 127.7V131.7C73.2639 131.7 75.272 130.896 76.8742 129.294L74.0458 126.466ZM70.98 127.7C69.7146 127.7 68.6599 127.286 67.7209 126.414L64.9991 129.346C66.6734 130.9 68.6988 131.7 70.98 131.7V127.7ZM67.7742 126.466C66.9498 125.641 66.54 124.663 66.54 123.4H62.54C62.54 125.684 63.3436 127.692 64.9458 129.294L67.7742 126.466ZM66.54 123.4V119.76H62.54V123.4H66.54ZM63.086 118.387C60.0712 121.579 56.723 124.041 53.0401 125.794L54.7599 129.406C58.917 127.426 62.6621 124.661 65.994 121.133L63.086 118.387ZM53.0401 125.794C49.4239 127.516 45.2907 128.4 40.6 128.4V132.4C45.8026 132.4 50.5361 131.417 54.7599 129.406L53.0401 125.794ZM42.42 120.5C47.2892 120.5 51.7657 119.454 55.8097 117.331L53.9503 113.789C50.5276 115.586 46.6975 116.5 42.42 116.5V120.5ZM55.8438 117.312C59.7602 115.158 63.1582 112.503 66.022 109.343L63.058 106.657C60.5085 109.47 57.4665 111.855 53.9162 113.808L55.8438 117.312ZM66.54 108V78.6H62.54V108H66.54ZM66.022 77.257C63.1505 74.0885 59.7411 71.4732 55.8097 69.4092L53.9503 72.9508C57.4856 74.8068 60.5161 77.1382 63.058 79.943L66.022 77.257ZM55.8438 69.4276C51.7937 67.2 47.3049 66.1 42.42 66.1V70.1C46.6818 70.1 50.4997 71.0533 53.9162 72.9324L55.8438 69.4276ZM42.42 66.1C35.3162 66.1 29.293 68.4207 24.5011 73.1107L27.2989 75.9693C31.2803 72.0727 36.2705 70.1 42.42 70.1V66.1ZM24.5014 73.1103C19.6951 77.8121 17.46 84.6661 17.46 93.3H21.46C21.46 85.3205 23.5182 79.6679 27.2986 75.9697L24.5014 73.1103ZM17.46 93.3C17.46 101.851 19.7004 108.689 24.4858 113.474L27.3142 110.646C23.513 106.845 21.46 101.175 21.46 93.3H17.46ZM24.5011 113.489C29.293 118.179 35.3162 120.5 42.42 120.5V116.5C36.2705 116.5 31.2803 114.527 27.2989 110.631L24.5011 113.489ZM100.36 40.94L98.9461 42.3542L98.9461 42.3542L100.36 40.94ZM111.28 40.94L112.695 42.3542L112.695 42.3542L111.28 40.94ZM101.2 127.88L102.615 126.466L102.615 126.466L101.2 127.88ZM101.2 58.72L102.615 60.1342L102.615 60.1342L101.2 58.72ZM110.3 58.72L111.715 57.3058L110.3 58.72ZM110.3 127.88L111.715 129.294L111.715 129.294L110.3 127.88ZM105.4 41.04C103.977 41.04 102.804 40.555 101.775 39.5258L98.9461 42.3542C100.717 44.125 102.904 45.04 105.4 45.04V41.04ZM101.775 39.5258C100.745 38.4966 100.26 37.3235 100.26 35.9H96.2603C96.2603 38.3965 97.1753 40.5834 98.9461 42.3542L101.775 39.5258ZM100.26 35.9V35.34H96.2603V35.9H100.26ZM100.26 35.34C100.26 33.9164 100.745 32.7434 101.775 31.7142L98.9461 28.8858C97.1753 30.6566 96.2603 32.8435 96.2603 35.34H100.26ZM101.775 31.7142C102.804 30.685 103.977 30.2 105.4 30.2V26.2C102.904 26.2 100.717 27.115 98.9461 28.8858L101.775 31.7142ZM105.4 30.2H106.24V26.2H105.4V30.2ZM106.24 30.2C107.664 30.2 108.837 30.685 109.866 31.7142L112.695 28.8858C110.924 27.115 108.737 26.2 106.24 26.2V30.2ZM109.866 31.7142C110.895 32.7434 111.38 33.9164 111.38 35.34H115.38C115.38 32.8435 114.465 30.6566 112.695 28.8858L109.866 31.7142ZM111.38 35.34V35.9H115.38V35.34H111.38ZM111.38 35.9C111.38 37.3235 110.895 38.4966 109.866 39.5258L112.695 42.3542C114.465 40.5834 115.38 38.3965 115.38 35.9H111.38ZM109.866 39.5258C108.837 40.555 107.664 41.04 106.24 41.04V45.04C108.737 45.04 110.924 44.125 112.695 42.3542L109.866 39.5258ZM106.24 41.04H105.4V45.04H106.24V41.04ZM105.68 127.7C104.418 127.7 103.439 127.29 102.615 126.466L99.7861 129.294C101.388 130.896 103.396 131.7 105.68 131.7V127.7ZM102.615 126.466C101.79 125.641 101.38 124.663 101.38 123.4H97.3803C97.3803 125.684 98.1839 127.692 99.7861 129.294L102.615 126.466ZM101.38 123.4V63.34H97.3803V123.4H101.38ZM101.38 63.34C101.38 61.9524 101.811 60.9376 102.615 60.1342L99.7861 57.3058C98.1629 58.929 97.3803 60.9943 97.3803 63.34H101.38ZM102.615 60.1342C103.439 59.3097 104.418 58.9 105.68 58.9V54.9C103.396 54.9 101.388 55.7036 99.7861 57.3058L102.615 60.1342ZM105.68 58.9C107.068 58.9 108.083 59.3308 108.886 60.1342L111.715 57.3058C110.091 55.6826 108.026 54.9 105.68 54.9V58.9ZM108.886 60.1342C109.69 60.9376 110.12 61.9524 110.12 63.34H114.12C114.12 60.9943 113.338 58.929 111.715 57.3058L108.886 60.1342ZM110.12 63.34V123.4H114.12V63.34H110.12ZM110.12 123.4C110.12 124.663 109.711 125.641 108.886 126.466L111.715 129.294C113.317 127.692 114.12 125.684 114.12 123.4H110.12ZM108.886 126.466C108.083 127.269 107.068 127.7 105.68 127.7V131.7C108.026 131.7 110.091 130.917 111.715 129.294L108.886 126.466ZM145.864 160.08L144.394 161.437L144.421 161.466L144.449 161.494L145.864 160.08ZM144.604 153.5L146.442 154.288L146.455 154.257L146.467 154.225L144.604 153.5ZM153.704 130.12L155.567 130.845L155.857 130.1L155.554 129.361L153.704 130.12ZM127.384 66L125.443 66.4851L125.478 66.6255L125.533 66.7595L127.384 66ZM126.964 64.74L125.002 65.1322L125.038 65.3123L125.107 65.4828L126.964 64.74ZM128.644 58.86L130.058 60.2742L130.084 60.248L130.109 60.2209L128.644 58.86ZM136.624 58.02L135.447 59.6375L135.48 59.6615L135.514 59.6841L136.624 58.02ZM139.004 60.82L140.859 60.0722L140.854 60.0615L140.85 60.0508L139.004 60.82ZM160.564 114.3L158.709 115.048L160.541 119.593L162.412 115.064L160.564 114.3ZM182.544 61.1L180.705 60.3122L180.7 60.3242L180.695 60.3363L182.544 61.1ZM184.784 58.02L183.607 56.4025L183.57 56.4296L183.534 56.4583L184.784 58.02ZM192.904 58.86L191.438 60.2209L191.463 60.248L191.489 60.2742L192.904 58.86ZM194.304 65.72L196.15 66.4884L196.164 66.4556L196.176 66.4222L194.304 65.72ZM156.084 157.56L157.9 158.398L157.915 158.364L157.93 158.328L156.084 157.56ZM153.844 160.64L152.506 159.153L153.844 160.64ZM150.204 159.9C149.067 159.9 148.125 159.513 147.278 158.666L144.449 161.494C146.029 163.074 147.981 163.9 150.204 163.9V159.9ZM147.333 158.723C146.561 157.887 146.184 156.927 146.184 155.74H142.184C142.184 157.913 142.926 159.847 144.394 161.437L147.333 158.723ZM146.184 155.74C146.184 155.122 146.286 154.651 146.442 154.288L142.765 152.712C142.361 153.655 142.184 154.678 142.184 155.74H146.184ZM146.467 154.225L155.567 130.845L151.84 129.395L142.74 152.775L146.467 154.225ZM155.554 129.361L129.234 65.2405L125.533 66.7595L151.853 130.879L155.554 129.361ZM129.324 65.5149C129.203 65.0321 129.031 64.524 128.821 63.9972L125.107 65.4828C125.269 65.8894 125.377 66.2212 125.443 66.4851L129.324 65.5149ZM128.925 64.3478C128.857 64.0077 128.824 63.6724 128.824 63.34H124.824C124.824 63.941 124.884 64.539 125.002 65.1322L128.925 64.3478ZM128.824 63.34C128.824 62.0773 129.233 61.0987 130.058 60.2742L127.229 57.4458C125.627 59.048 124.824 61.0561 124.824 63.34H128.824ZM130.109 60.2209C130.946 59.3192 131.91 58.9 133.124 58.9V54.9C130.791 54.9 128.767 55.7875 127.178 57.4991L130.109 60.2209ZM133.124 58.9C134.021 58.9 134.773 59.1471 135.447 59.6375L137.8 56.4025C136.421 55.3996 134.84 54.9 133.124 54.9V58.9ZM135.514 59.6841C136.343 60.2366 136.859 60.873 137.157 61.5892L140.85 60.0508C140.215 58.527 139.144 57.2967 137.733 56.3559L135.514 59.6841ZM137.149 61.5678L158.709 115.048L162.419 113.552L140.859 60.0722L137.149 61.5678ZM162.412 115.064L184.392 61.8637L180.695 60.3363L158.715 113.536L162.412 115.064ZM184.382 61.8878C184.837 60.8265 185.401 60.0872 186.033 59.5817L183.534 56.4583C182.299 57.4461 181.37 58.7601 180.705 60.3122L184.382 61.8878ZM185.96 59.6375C186.61 59.165 187.401 58.9 188.424 58.9V54.9C186.647 54.9 185.011 55.3817 183.607 56.4025L185.96 59.6375ZM188.424 58.9C189.637 58.9 190.601 59.3192 191.438 60.2209L194.369 57.4991C192.78 55.7875 190.757 54.9 188.424 54.9V58.9ZM191.489 60.2742C192.314 61.0987 192.724 62.0773 192.724 63.34H196.724C196.724 61.0561 195.92 59.048 194.318 57.4458L191.489 60.2742ZM192.724 63.34C192.724 63.9531 192.622 64.5074 192.431 65.0177L196.176 66.4222C196.545 65.4392 196.724 64.4069 196.724 63.34H192.724ZM192.457 64.9516L154.237 156.792L157.93 158.328L196.15 66.4884L192.457 64.9516ZM154.268 156.722C153.814 157.705 153.225 158.506 152.506 159.153L155.182 162.127C156.329 161.094 157.233 159.842 157.9 158.398L154.268 156.722ZM152.506 159.153C152.007 159.602 151.302 159.9 150.204 159.9V163.9C152.092 163.9 153.814 163.358 155.182 162.127L152.506 159.153ZM213.662 120.74L212.227 122.134L212.237 122.144L212.248 122.154L213.662 120.74ZM207.642 75.38L209.488 76.1492L209.492 76.1384L207.642 75.38ZM218.562 61.52L219.727 63.1454L219.727 63.1454L218.562 61.52ZM255.802 61.24L254.678 62.8944L254.689 62.9017L254.7 62.9089L255.802 61.24ZM267.002 74.12L265.194 74.9762L265.2 74.989L265.207 75.0018L267.002 74.12ZM269.102 95.96L267.688 94.5458L267.659 94.5741L267.632 94.6034L269.102 95.96ZM217.022 97.78V95.78H214.769L215.036 98.0171L217.022 97.78ZM224.162 112.9L222.782 114.347L222.791 114.356L222.8 114.364L224.162 112.9ZM252.162 117.38L252.662 119.317L252.691 119.309L252.72 119.301L252.162 117.38ZM260.422 114.16L259.527 112.371L259.527 112.371L260.422 114.16ZM266.862 115.14L268.213 113.666L266.862 115.14ZM267.422 122.14L265.86 120.891L265.852 120.901L265.843 120.912L267.422 122.14ZM264.902 124.24L263.944 122.484L263.924 122.495L263.904 122.507L264.902 124.24ZM254.822 128.72L255.424 130.627L255.439 130.622L255.454 130.617L254.822 128.72ZM217.022 87.42L215.025 87.3048L214.903 89.42H217.022V87.42ZM258.322 87.42V89.42H260.441L260.319 87.3048L258.322 87.42ZM254.542 75.66L252.918 76.8273L252.93 76.8438L252.942 76.86L254.542 75.66ZM246.702 69.08L247.529 67.2593L247.529 67.2593L246.702 69.08ZM228.502 69.08L227.674 67.2593L227.674 67.2593L228.502 69.08ZM240.402 128.4C229.405 128.4 221.052 125.302 215.076 119.326L212.248 122.154C219.151 129.058 228.625 132.4 240.402 132.4V128.4ZM215.096 119.346C209.209 113.286 206.142 104.697 206.142 93.3H202.142C202.142 105.423 205.421 115.127 212.227 122.134L215.096 119.346ZM206.142 93.3C206.142 87.205 207.261 81.4943 209.488 76.1492L205.796 74.6108C203.356 80.4657 202.142 86.7017 202.142 93.3H206.142ZM209.492 76.1384C211.685 70.7887 215.089 66.4707 219.727 63.1454L217.397 59.8946C212.141 63.6627 208.265 68.5846 205.791 74.6216L209.492 76.1384ZM219.727 63.1454C224.252 59.9015 230.159 58.2 237.602 58.2V54.2C229.552 54.2 222.765 56.0452 217.397 59.8946L219.727 63.1454ZM237.602 58.2C244.47 58.2 250.125 59.8017 254.678 62.8944L256.926 59.5856C251.585 55.9582 245.107 54.2 237.602 54.2V58.2ZM254.7 62.9089C259.344 65.9757 262.832 69.9889 265.194 74.9762L268.809 73.2638C266.132 67.6111 262.153 63.0376 256.904 59.5711L254.7 62.9089ZM265.207 75.0018C267.678 80.0323 268.922 85.5151 268.922 91.48H272.922C272.922 84.9382 271.553 78.8477 268.797 73.2382L265.207 75.0018ZM268.922 91.48C268.922 92.7427 268.512 93.7213 267.688 94.5458L270.516 97.3742C272.118 95.772 272.922 93.7639 272.922 91.48H268.922ZM267.632 94.6034C266.962 95.33 265.997 95.78 264.482 95.78V99.78C266.887 99.78 269.002 99.0167 270.571 97.3166L267.632 94.6034ZM264.482 95.78H217.022V99.78H264.482V95.78ZM215.036 98.0171C215.83 104.666 218.387 110.157 222.782 114.347L225.542 111.453C221.91 107.99 219.707 103.401 219.008 97.5429L215.036 98.0171ZM222.8 114.364C227.304 118.554 233.65 120.5 241.522 120.5V116.5C234.274 116.5 229.047 114.712 225.524 111.436L222.8 114.364ZM241.522 120.5C245.828 120.5 249.554 120.119 252.662 119.317L251.662 115.443C248.983 116.135 245.616 116.5 241.522 116.5V120.5ZM252.72 119.301C255.725 118.428 258.592 117.311 261.316 115.949L259.527 112.371C257.025 113.622 254.385 114.652 251.604 115.459L252.72 119.301ZM261.316 115.949C261.754 115.73 262.282 115.6 262.942 115.6V111.6C261.735 111.6 260.583 111.843 259.527 112.371L261.316 115.949ZM262.942 115.6C263.925 115.6 264.752 115.919 265.51 116.614L268.213 113.666C266.732 112.307 264.945 111.6 262.942 111.6V115.6ZM265.51 116.614C266.197 117.244 266.542 118.006 266.542 119.06H270.542C270.542 116.941 269.767 115.09 268.213 113.666L265.51 116.614ZM266.542 119.06C266.542 119.694 266.344 120.286 265.86 120.891L268.984 123.389C269.994 122.127 270.542 120.666 270.542 119.06H266.542ZM265.843 120.912C265.374 121.515 264.754 122.043 263.944 122.484L265.86 125.996C267.103 125.317 268.163 124.445 269.001 123.368L265.843 120.912ZM263.904 122.507C260.949 124.208 257.712 125.648 254.189 126.823L255.454 130.617C259.211 129.365 262.695 127.818 265.9 125.973L263.904 122.507ZM254.22 126.813C250.951 127.845 246.376 128.4 240.402 128.4V132.4C246.561 132.4 251.599 131.835 255.424 130.627L254.22 126.813ZM217.022 89.42H258.322V85.42H217.022V89.42ZM260.319 87.3048C260.023 82.1759 258.68 77.8437 256.142 74.46L252.942 76.86C254.884 79.4496 256.061 82.9574 256.325 87.5352L260.319 87.3048ZM256.166 74.4927C253.834 71.2479 250.955 68.8162 247.529 67.2593L245.874 70.9007C248.609 72.1437 250.957 74.0988 252.918 76.8273L256.166 74.4927ZM247.529 67.2593C244.224 65.7568 240.91 64.98 237.602 64.98V68.98C240.267 68.98 243.02 69.6032 245.874 70.9007L247.529 67.2593ZM237.602 64.98C234.294 64.98 230.98 65.7568 227.674 67.2593L229.329 70.9007C232.184 69.6032 234.936 68.98 237.602 68.98V64.98ZM227.674 67.2593C224.249 68.8162 221.37 71.2479 219.038 74.4927L222.286 76.8273C224.247 74.0988 226.595 72.1437 229.329 70.9007L227.674 67.2593ZM219.038 74.4927C216.609 77.8721 215.32 82.1918 215.025 87.3048L219.019 87.5352C219.284 82.9415 220.421 79.4213 222.286 76.8273L219.038 74.4927Z" fill="#819C33" mask="url(#path-1-outside-1_68_13)"/>
</g>
<mask id="path-3-outside-2_68_13" maskUnits="userSpaceOnUse" x="277" y="24" width="206" height="109" fill="black">
<rect fill="white" x="277" y="24" width="206" height="109"/>
<path d="M312.7 130.4C311.02 130.4 309.013 130.213 306.68 129.84C304.44 129.56 302.2 128.86 299.96 127.74C297.813 126.527 295.993 124.66 294.5 122.14C293.007 119.62 292.26 116.213 292.26 111.92V68.52H282.32C280.547 68.52 279.66 67.6333 279.66 65.86C279.66 64.9267 280.08 64.1333 280.92 63.48L299.96 44.86C300.147 44.6733 300.427 44.44 300.8 44.16C301.267 43.7867 301.78 43.6 302.34 43.6C303.087 43.6 303.693 43.88 304.16 44.44C304.72 45 305 45.6533 305 46.4V57.6H320.82C322.407 57.6 323.713 58.1133 324.74 59.14C325.767 60.1667 326.28 61.4733 326.28 63.06C326.28 64.5533 325.767 65.86 324.74 66.98C323.713 68.0067 322.407 68.52 320.82 68.52H305V110.8C305 113.507 305.513 115.467 306.54 116.68C307.567 117.893 308.78 118.64 310.18 118.92C311.673 119.107 312.98 119.2 314.1 119.2C316.34 119.2 317.973 119.013 319 118.64C320.12 118.173 321.287 117.94 322.5 117.94C323.807 117.94 324.973 118.407 326 119.34C327.027 120.273 327.54 121.487 327.54 122.98C327.54 125.127 326.467 126.76 324.32 127.88C322.64 128.627 320.82 129.233 318.86 129.7C316.993 130.167 314.94 130.4 312.7 130.4ZM359.717 130.4C355.704 130.4 351.924 129.56 348.377 127.88C344.924 126.2 342.124 123.82 339.977 120.74C337.924 117.567 336.897 113.787 336.897 109.4C336.897 102.773 339.51 97.36 344.737 93.16C350.057 88.8667 358.177 86.72 369.097 86.72H386.037V85.6C386.037 79.3467 384.497 74.9133 381.417 72.3C378.337 69.5933 373.624 68.24 367.277 68.24C363.357 68.24 359.904 68.6133 356.917 69.36C354.024 70.0133 351.27 70.76 348.657 71.6C347.91 71.7867 347.304 71.88 346.837 71.88C345.437 71.88 344.224 71.3667 343.197 70.34C342.17 69.3133 341.657 68.0533 341.657 66.56C341.657 64.04 342.87 62.2667 345.297 61.24C348.564 59.84 352.157 58.6733 356.077 57.74C360.09 56.7133 364.57 56.2 369.517 56.2C376.33 56.2 381.884 57.5533 386.177 60.26C390.47 62.9667 393.644 66.42 395.697 70.62C397.75 74.82 398.777 79.2067 398.777 83.78V123.4C398.777 125.173 398.124 126.667 396.817 127.88C395.604 129.093 394.11 129.7 392.337 129.7C390.564 129.7 389.07 129.093 387.857 127.88C386.644 126.667 386.037 125.173 386.037 123.4V119.76C383.517 122.373 380.157 124.8 375.957 127.04C371.757 129.28 366.344 130.4 359.717 130.4ZM364.477 119.2C368.864 119.2 372.97 118.127 376.797 115.98C380.624 113.833 383.704 111.407 386.037 108.7V96.94H370.777C364.244 96.94 359.064 97.78 355.237 99.46C351.504 101.14 349.637 103.987 349.637 108C349.637 110.987 350.664 113.6 352.717 115.84C354.864 118.08 358.784 119.2 364.477 119.2ZM426.43 129.7C424.657 129.7 423.164 129.093 421.95 127.88C420.737 126.667 420.13 125.173 420.13 123.4V32.54C420.13 30.7667 420.737 29.2733 421.95 28.06C423.164 26.7533 424.657 26.1 426.43 26.1C428.204 26.1 429.697 26.7533 430.91 28.06C432.217 29.2733 432.87 30.7667 432.87 32.54V89.8L466.19 59C466.75 58.5333 467.357 58.1133 468.01 57.74C468.757 57.3667 469.55 57.18 470.39 57.18C472.817 57.18 474.45 57.88 475.29 59.28C476.13 60.5867 476.55 61.94 476.55 63.34C476.55 63.9 476.41 64.6 476.13 65.44C475.85 66.1867 475.197 67.0733 474.17 68.1L454.01 86.16L479.35 119.76C480.284 120.973 480.75 122.233 480.75 123.54C480.75 125.407 480.144 126.9 478.93 128.02C477.717 129.14 476.177 129.7 474.31 129.7C472.35 129.7 470.624 128.813 469.13 127.04L445.05 94.28L432.87 105.34V123.4C432.87 125.173 432.217 126.667 430.91 127.88C429.697 129.093 428.204 129.7 426.43 129.7Z"/>
</mask>
<path d="M312.7 130.4C311.02 130.4 309.013 130.213 306.68 129.84C304.44 129.56 302.2 128.86 299.96 127.74C297.813 126.527 295.993 124.66 294.5 122.14C293.007 119.62 292.26 116.213 292.26 111.92V68.52H282.32C280.547 68.52 279.66 67.6333 279.66 65.86C279.66 64.9267 280.08 64.1333 280.92 63.48L299.96 44.86C300.147 44.6733 300.427 44.44 300.8 44.16C301.267 43.7867 301.78 43.6 302.34 43.6C303.087 43.6 303.693 43.88 304.16 44.44C304.72 45 305 45.6533 305 46.4V57.6H320.82C322.407 57.6 323.713 58.1133 324.74 59.14C325.767 60.1667 326.28 61.4733 326.28 63.06C326.28 64.5533 325.767 65.86 324.74 66.98C323.713 68.0067 322.407 68.52 320.82 68.52H305V110.8C305 113.507 305.513 115.467 306.54 116.68C307.567 117.893 308.78 118.64 310.18 118.92C311.673 119.107 312.98 119.2 314.1 119.2C316.34 119.2 317.973 119.013 319 118.64C320.12 118.173 321.287 117.94 322.5 117.94C323.807 117.94 324.973 118.407 326 119.34C327.027 120.273 327.54 121.487 327.54 122.98C327.54 125.127 326.467 126.76 324.32 127.88C322.64 128.627 320.82 129.233 318.86 129.7C316.993 130.167 314.94 130.4 312.7 130.4ZM359.717 130.4C355.704 130.4 351.924 129.56 348.377 127.88C344.924 126.2 342.124 123.82 339.977 120.74C337.924 117.567 336.897 113.787 336.897 109.4C336.897 102.773 339.51 97.36 344.737 93.16C350.057 88.8667 358.177 86.72 369.097 86.72H386.037V85.6C386.037 79.3467 384.497 74.9133 381.417 72.3C378.337 69.5933 373.624 68.24 367.277 68.24C363.357 68.24 359.904 68.6133 356.917 69.36C354.024 70.0133 351.27 70.76 348.657 71.6C347.91 71.7867 347.304 71.88 346.837 71.88C345.437 71.88 344.224 71.3667 343.197 70.34C342.17 69.3133 341.657 68.0533 341.657 66.56C341.657 64.04 342.87 62.2667 345.297 61.24C348.564 59.84 352.157 58.6733 356.077 57.74C360.09 56.7133 364.57 56.2 369.517 56.2C376.33 56.2 381.884 57.5533 386.177 60.26C390.47 62.9667 393.644 66.42 395.697 70.62C397.75 74.82 398.777 79.2067 398.777 83.78V123.4C398.777 125.173 398.124 126.667 396.817 127.88C395.604 129.093 394.11 129.7 392.337 129.7C390.564 129.7 389.07 129.093 387.857 127.88C386.644 126.667 386.037 125.173 386.037 123.4V119.76C383.517 122.373 380.157 124.8 375.957 127.04C371.757 129.28 366.344 130.4 359.717 130.4ZM364.477 119.2C368.864 119.2 372.97 118.127 376.797 115.98C380.624 113.833 383.704 111.407 386.037 108.7V96.94H370.777C364.244 96.94 359.064 97.78 355.237 99.46C351.504 101.14 349.637 103.987 349.637 108C349.637 110.987 350.664 113.6 352.717 115.84C354.864 118.08 358.784 119.2 364.477 119.2ZM426.43 129.7C424.657 129.7 423.164 129.093 421.95 127.88C420.737 126.667 420.13 125.173 420.13 123.4V32.54C420.13 30.7667 420.737 29.2733 421.95 28.06C423.164 26.7533 424.657 26.1 426.43 26.1C428.204 26.1 429.697 26.7533 430.91 28.06C432.217 29.2733 432.87 30.7667 432.87 32.54V89.8L466.19 59C466.75 58.5333 467.357 58.1133 468.01 57.74C468.757 57.3667 469.55 57.18 470.39 57.18C472.817 57.18 474.45 57.88 475.29 59.28C476.13 60.5867 476.55 61.94 476.55 63.34C476.55 63.9 476.41 64.6 476.13 65.44C475.85 66.1867 475.197 67.0733 474.17 68.1L454.01 86.16L479.35 119.76C480.284 120.973 480.75 122.233 480.75 123.54C480.75 125.407 480.144 126.9 478.93 128.02C477.717 129.14 476.177 129.7 474.31 129.7C472.35 129.7 470.624 128.813 469.13 127.04L445.05 94.28L432.87 105.34V123.4C432.87 125.173 432.217 126.667 430.91 127.88C429.697 129.093 428.204 129.7 426.43 129.7Z" fill="#33411B"/>
<path d="M306.68 129.84L306.996 127.865L306.962 127.86L306.928 127.855L306.68 129.84ZM299.96 127.74L298.976 129.481L299.02 129.506L299.066 129.529L299.96 127.74ZM294.5 122.14L292.779 123.16L292.779 123.16L294.5 122.14ZM292.26 68.52H294.26V66.52H292.26V68.52ZM280.92 63.48L282.148 65.0587L282.237 64.9891L282.318 64.9099L280.92 63.48ZM299.96 44.86L301.358 46.2899L301.366 46.2821L301.374 46.2742L299.96 44.86ZM300.8 44.16L302 45.76L302.025 45.7413L302.049 45.7217L300.8 44.16ZM304.16 44.44L302.624 45.7204L302.682 45.7901L302.746 45.8542L304.16 44.44ZM305 57.6H303V59.6H305V57.6ZM324.74 59.14L323.326 60.5542L323.326 60.5542L324.74 59.14ZM324.74 66.98L326.154 68.3942L326.185 68.3635L326.214 68.3314L324.74 66.98ZM305 68.52V66.52H303V68.52H305ZM306.54 116.68L308.067 115.388L308.067 115.388L306.54 116.68ZM310.18 118.92L309.788 120.881L309.859 120.895L309.932 120.905L310.18 118.92ZM319 118.64L319.683 120.52L319.727 120.504L319.769 120.486L319 118.64ZM326 119.34L327.345 117.86L327.345 117.86L326 119.34ZM324.32 127.88L325.132 129.708L325.19 129.682L325.245 129.653L324.32 127.88ZM318.86 129.7L318.397 127.754L318.386 127.757L318.375 127.76L318.86 129.7ZM312.7 128.4C311.159 128.4 309.263 128.228 306.996 127.865L306.364 131.815C308.763 132.199 310.881 132.4 312.7 132.4V128.4ZM306.928 127.855C304.936 127.606 302.914 126.981 300.854 125.951L299.066 129.529C301.486 130.739 303.944 131.514 306.432 131.825L306.928 127.855ZM300.944 125.999C299.154 124.987 297.569 123.396 296.221 121.12L292.779 123.16C294.417 125.924 296.472 128.066 298.976 129.481L300.944 125.999ZM296.221 121.12C294.976 119.02 294.26 116.011 294.26 111.92H290.26C290.26 116.416 291.037 120.22 292.779 123.16L296.221 121.12ZM294.26 111.92V68.52H290.26V111.92H294.26ZM292.26 66.52H282.32V70.52H292.26V66.52ZM282.32 66.52C281.742 66.52 281.675 66.3768 281.739 66.4408C281.803 66.5048 281.66 66.4384 281.66 65.86H277.66C277.66 67.055 277.96 68.3185 278.911 69.2692C279.861 70.2199 281.125 70.52 282.32 70.52V66.52ZM281.66 65.86C281.66 65.6358 281.718 65.3934 282.148 65.0587L279.692 61.9013C278.442 62.8733 277.66 64.2175 277.66 65.86H281.66ZM282.318 64.9099L301.358 46.2899L298.562 43.4301L279.522 62.0501L282.318 64.9099ZM301.374 46.2742C301.462 46.1866 301.654 46.0192 302 45.76L299.6 42.56C299.199 42.8608 298.831 43.1601 298.546 43.4458L301.374 46.2742ZM302.049 45.7217C302.187 45.6116 302.266 45.6 302.34 45.6V41.6C301.294 41.6 300.346 41.9617 299.551 42.5983L302.049 45.7217ZM302.34 45.6C302.458 45.6 302.506 45.6207 302.517 45.6259C302.527 45.6305 302.563 45.6475 302.624 45.7204L305.696 43.1596C304.839 42.131 303.664 41.6 302.34 41.6V45.6ZM302.746 45.8542C302.956 46.0644 303 46.2184 303 46.4H307C307 45.0882 306.484 43.9356 305.574 43.0258L302.746 45.8542ZM303 46.4V57.6H307V46.4H303ZM305 59.6H320.82V55.6H305V59.6ZM320.82 59.6C321.93 59.6 322.711 59.9393 323.326 60.5542L326.154 57.7258C324.716 56.2874 322.883 55.6 320.82 55.6V59.6ZM323.326 60.5542C323.941 61.1692 324.28 61.9496 324.28 63.06H328.28C328.28 60.9971 327.593 59.1642 326.154 57.7258L323.326 60.5542ZM324.28 63.06C324.28 64.0434 323.961 64.8703 323.266 65.6285L326.214 68.3314C327.573 66.8497 328.28 65.0633 328.28 63.06H324.28ZM323.326 65.5658C322.711 66.1807 321.93 66.52 320.82 66.52V70.52C322.883 70.52 324.716 69.8326 326.154 68.3942L323.326 65.5658ZM320.82 66.52H305V70.52H320.82V66.52ZM303 68.52V110.8H307V68.52H303ZM303 110.8C303 113.675 303.53 116.219 305.013 117.972L308.067 115.388C307.497 114.715 307 113.338 307 110.8H303ZM305.013 117.972C306.297 119.489 307.895 120.503 309.788 120.881L310.572 116.959C309.666 116.777 308.837 116.298 308.067 115.388L305.013 117.972ZM309.932 120.905C311.482 121.098 312.874 121.2 314.1 121.2V117.2C313.086 117.2 311.865 117.115 310.428 116.935L309.932 120.905ZM314.1 121.2C316.381 121.2 318.31 121.019 319.683 120.52L318.317 116.76C317.637 117.008 316.299 117.2 314.1 117.2V121.2ZM319.769 120.486C320.645 120.121 321.551 119.94 322.5 119.94V115.94C321.023 115.94 319.595 116.226 318.231 116.794L319.769 120.486ZM322.5 119.94C323.276 119.94 323.971 120.199 324.655 120.82L327.345 117.86C325.975 116.615 324.337 115.94 322.5 115.94V119.94ZM324.655 120.82C325.23 121.343 325.54 122.002 325.54 122.98H329.54C329.54 120.971 328.823 119.204 327.345 117.86L324.655 120.82ZM325.54 122.98C325.54 123.703 325.365 124.258 325.064 124.717C324.754 125.188 324.237 125.667 323.395 126.107L325.245 129.653C326.549 128.973 327.643 128.075 328.406 126.913C329.178 125.739 329.54 124.404 329.54 122.98H325.54ZM323.508 126.052C321.95 126.745 320.248 127.314 318.397 127.754L319.323 131.646C321.392 131.153 323.33 130.509 325.132 129.708L323.508 126.052ZM318.375 127.76C316.69 128.181 314.803 128.4 312.7 128.4V132.4C315.077 132.4 317.296 132.152 319.345 131.64L318.375 127.76ZM348.377 127.88L347.502 129.678L347.511 129.683L347.521 129.687L348.377 127.88ZM339.977 120.74L338.298 121.827L338.317 121.855L338.336 121.884L339.977 120.74ZM344.737 93.16L345.99 94.719L345.993 94.7164L344.737 93.16ZM386.037 86.72V88.72H388.037V86.72H386.037ZM381.417 72.3L380.097 73.8023L380.11 73.8138L380.123 73.825L381.417 72.3ZM356.917 69.36L357.358 71.3109L357.38 71.3058L357.402 71.3003L356.917 69.36ZM348.657 71.6L349.142 73.5403L349.206 73.5243L349.269 73.5041L348.657 71.6ZM343.197 70.34L344.611 68.9258L344.611 68.9258L343.197 70.34ZM345.297 61.24L346.076 63.082L346.085 63.0783L345.297 61.24ZM356.077 57.74L356.54 59.6856L356.557 59.6817L356.573 59.6776L356.077 57.74ZM386.177 60.26L387.244 58.5681L386.177 60.26ZM395.697 70.62L393.9 71.4984L393.9 71.4984L395.697 70.62ZM396.817 127.88L395.456 126.414L395.429 126.44L395.403 126.466L396.817 127.88ZM387.857 127.88L389.271 126.466L389.271 126.466L387.857 127.88ZM386.037 119.76H388.037V114.805L384.597 118.372L386.037 119.76ZM375.957 127.04L376.898 128.805L376.898 128.805L375.957 127.04ZM376.797 115.98L377.776 117.724L377.776 117.724L376.797 115.98ZM386.037 108.7L387.552 110.006L388.037 109.443V108.7H386.037ZM386.037 96.94H388.037V94.94H386.037V96.94ZM355.237 99.46L354.433 97.6287L354.425 97.6324L354.416 97.6362L355.237 99.46ZM352.717 115.84L351.243 117.191L351.258 117.208L351.273 117.224L352.717 115.84ZM359.717 128.4C355.993 128.4 352.506 127.623 349.233 126.073L347.521 129.687C351.341 131.497 355.414 132.4 359.717 132.4V128.4ZM349.252 126.082C346.098 124.547 343.565 122.39 341.618 119.596L338.336 121.884C340.683 125.25 343.749 127.853 347.502 129.678L349.252 126.082ZM341.656 119.653C339.844 116.853 338.897 113.464 338.897 109.4H334.897C334.897 114.109 336.003 118.28 338.298 121.827L341.656 119.653ZM338.897 109.4C338.897 103.388 341.229 98.5446 345.99 94.719L343.484 91.601C337.792 96.1754 334.897 102.159 334.897 109.4H338.897ZM345.993 94.7164C350.8 90.8374 358.379 88.72 369.097 88.72V84.72C357.975 84.72 349.314 86.8959 343.481 91.6036L345.993 94.7164ZM369.097 88.72H386.037V84.72H369.097V88.72ZM388.037 86.72V85.6H384.037V86.72H388.037ZM388.037 85.6C388.037 79.0818 386.437 73.9365 382.711 70.775L380.123 73.825C382.557 75.8902 384.037 79.6116 384.037 85.6H388.037ZM382.737 70.7977C379.138 67.6346 373.855 66.24 367.277 66.24V70.24C373.393 70.24 377.536 71.5521 380.097 73.8023L382.737 70.7977ZM367.277 66.24C363.236 66.24 359.614 66.6243 356.432 67.4197L357.402 71.3003C360.194 70.6023 363.478 70.24 367.277 70.24V66.24ZM356.477 67.4091C353.53 68.0745 350.719 68.8364 348.045 69.6959L349.269 73.5041C351.822 72.6836 354.517 71.9522 357.358 71.3109L356.477 67.4091ZM348.172 69.6597C347.496 69.8288 347.069 69.88 346.837 69.88V73.88C347.538 73.88 348.325 73.7446 349.142 73.5403L348.172 69.6597ZM346.837 69.88C345.989 69.88 345.278 69.5929 344.611 68.9258L341.783 71.7542C343.169 73.1404 344.885 73.88 346.837 73.88V69.88ZM344.611 68.9258C343.971 68.286 343.657 67.5398 343.657 66.56H339.657C339.657 68.5668 340.369 70.3407 341.783 71.7542L344.611 68.9258ZM343.657 66.56C343.657 65.6317 343.876 64.969 344.218 64.4694C344.564 63.9636 345.136 63.48 346.076 63.0819L344.518 59.3981C343.032 60.0267 341.784 60.9431 340.916 62.2106C340.045 63.4844 339.657 64.9683 339.657 66.56H343.657ZM346.085 63.0783C349.234 61.7288 352.717 60.5959 356.54 59.6856L355.614 55.7944C351.597 56.7507 347.894 57.9512 344.509 59.4017L346.085 63.0783ZM356.573 59.6776C360.396 58.6995 364.706 58.2 369.517 58.2V54.2C364.434 54.2 359.784 54.7272 355.581 55.8024L356.573 59.6776ZM369.517 58.2C376.079 58.2 381.228 59.5044 385.11 61.9518L387.244 58.5681C382.539 55.6023 376.582 54.2 369.517 54.2V58.2ZM385.11 61.9518C389.117 64.478 392.024 67.6605 393.9 71.4984L397.494 69.7416C395.263 65.1794 391.823 61.4553 387.244 58.5681L385.11 61.9518ZM393.9 71.4984C395.823 75.4312 396.777 79.5181 396.777 83.78H400.777C400.777 78.8953 399.678 74.2088 397.494 69.7416L393.9 71.4984ZM396.777 83.78V123.4H400.777V83.78H396.777ZM396.777 123.4C396.777 124.614 396.358 125.577 395.456 126.414L398.178 129.346C399.89 127.756 400.777 125.733 400.777 123.4H396.777ZM395.403 126.466C394.578 127.29 393.6 127.7 392.337 127.7V131.7C394.621 131.7 396.629 130.896 398.231 129.294L395.403 126.466ZM392.337 127.7C391.074 127.7 390.096 127.29 389.271 126.466L386.443 129.294C388.045 130.896 390.053 131.7 392.337 131.7V127.7ZM389.271 126.466C388.447 125.641 388.037 124.663 388.037 123.4H384.037C384.037 125.684 384.841 127.692 386.443 129.294L389.271 126.466ZM388.037 123.4V119.76H384.037V123.4H388.037ZM384.597 118.372C382.26 120.796 379.085 123.105 375.016 125.275L376.898 128.805C381.229 126.495 384.774 123.951 387.477 121.148L384.597 118.372ZM375.016 125.275C371.197 127.312 366.137 128.4 359.717 128.4V132.4C366.55 132.4 372.317 131.248 376.898 128.805L375.016 125.275ZM364.477 121.2C369.206 121.2 373.65 120.039 377.776 117.724L375.819 114.236C372.291 116.215 368.521 117.2 364.477 117.2V121.2ZM377.776 117.724C381.76 115.489 385.036 112.924 387.552 110.006L384.522 107.394C382.371 109.89 379.487 112.178 375.819 114.236L377.776 117.724ZM388.037 108.7V96.94H384.037V108.7H388.037ZM386.037 94.94H370.777V98.94H386.037V94.94ZM370.777 94.94C364.106 94.94 358.615 95.7925 354.433 97.6287L356.041 101.291C359.512 99.7675 364.381 98.94 370.777 98.94V94.94ZM354.416 97.6362C352.273 98.6005 350.546 99.957 349.365 101.758C348.182 103.562 347.637 105.675 347.637 108H351.637C351.637 106.312 352.026 104.994 352.71 103.952C353.395 102.906 354.467 102 356.058 101.284L354.416 97.6362ZM347.637 108C347.637 111.497 348.858 114.59 351.243 117.191L354.191 114.489C352.47 112.61 351.637 110.477 351.637 108H347.637ZM351.273 117.224C354.01 120.08 358.653 121.2 364.477 121.2V117.2C358.914 117.2 355.717 116.08 354.161 114.456L351.273 117.224ZM421.95 127.88L423.365 126.466L423.365 126.466L421.95 127.88ZM421.95 28.06L423.365 29.4742L423.391 29.448L423.416 29.4209L421.95 28.06ZM430.91 28.06L429.445 29.4209L429.495 29.4752L429.549 29.5256L430.91 28.06ZM432.87 89.8H430.87V94.3723L434.228 91.2687L432.87 89.8ZM466.19 59L464.91 57.4636L464.87 57.4965L464.833 57.5313L466.19 59ZM468.01 57.74L467.116 55.9511L467.066 55.976L467.018 56.0035L468.01 57.74ZM475.29 59.28L473.575 60.309L473.591 60.3355L473.608 60.3615L475.29 59.28ZM476.13 65.44L478.003 66.1422L478.016 66.1076L478.028 66.0725L476.13 65.44ZM474.17 68.1L475.505 69.5897L475.546 69.553L475.585 69.5142L474.17 68.1ZM454.01 86.16L452.676 84.6703L451.307 85.8968L452.414 87.3643L454.01 86.16ZM479.35 119.76L477.754 120.964L477.759 120.972L477.765 120.979L479.35 119.76ZM478.93 128.02L477.574 126.55L477.574 126.55L478.93 128.02ZM469.13 127.04L467.519 128.225L467.558 128.278L467.6 128.328L469.13 127.04ZM445.05 94.28L446.662 93.0955L445.348 91.3081L443.706 92.7993L445.05 94.28ZM432.87 105.34L431.526 103.859L430.87 104.455V105.34H432.87ZM430.91 127.88L429.549 126.414L429.522 126.44L429.496 126.466L430.91 127.88ZM426.43 127.7C425.168 127.7 424.189 127.29 423.365 126.466L420.536 129.294C422.138 130.896 424.146 131.7 426.43 131.7V127.7ZM423.365 126.466C422.54 125.641 422.13 124.663 422.13 123.4H418.13C418.13 125.684 418.934 127.692 420.536 129.294L423.365 126.466ZM422.13 123.4V32.54H418.13V123.4H422.13ZM422.13 32.54C422.13 31.2773 422.54 30.2987 423.365 29.4742L420.536 26.6458C418.934 28.248 418.13 30.2561 418.13 32.54H422.13ZM423.416 29.4209C424.253 28.5192 425.217 28.1 426.43 28.1V24.1C424.097 24.1 422.074 24.9875 420.485 26.6991L423.416 29.4209ZM426.43 28.1C427.644 28.1 428.607 28.5192 429.445 29.4209L432.376 26.6991C430.787 24.9875 428.763 24.1 426.43 24.1V28.1ZM429.549 29.5256C430.451 30.3629 430.87 31.3263 430.87 32.54H434.87C434.87 30.207 433.983 28.1838 432.271 26.5944L429.549 29.5256ZM430.87 32.54V89.8H434.87V32.54H430.87ZM434.228 91.2687L467.548 60.4687L464.833 57.5313L431.513 88.3313L434.228 91.2687ZM467.471 60.5364C467.938 60.1471 468.448 59.7936 469.003 59.4765L467.018 56.0035C466.266 56.4331 465.563 56.9195 464.91 57.4636L467.471 60.5364ZM468.905 59.5289C469.372 59.2953 469.859 59.18 470.39 59.18V55.18C469.242 55.18 468.142 55.4381 467.116 55.9511L468.905 59.5289ZM470.39 59.18C472.485 59.18 473.253 59.7724 473.575 60.309L477.005 58.251C475.647 55.9876 473.149 55.18 470.39 55.18V59.18ZM473.608 60.3615C474.264 61.3822 474.55 62.3648 474.55 63.34H478.55C478.55 61.5152 477.997 59.7912 476.973 58.1985L473.608 60.3615ZM474.55 63.34C474.55 63.5975 474.48 64.0674 474.233 64.8075L478.028 66.0725C478.341 65.1326 478.55 64.2025 478.55 63.34H474.55ZM474.258 64.7377C474.129 65.0798 473.72 65.722 472.756 66.6858L475.585 69.5142C476.674 68.4247 477.571 67.2936 478.003 66.1422L474.258 64.7377ZM472.836 66.6103L452.676 84.6703L455.345 87.6497L475.505 69.5897L472.836 66.6103ZM452.414 87.3643L477.754 120.964L480.947 118.556L455.607 84.9557L452.414 87.3643ZM477.765 120.979C478.477 121.905 478.75 122.747 478.75 123.54H482.75C482.75 121.72 482.09 120.041 480.936 118.541L477.765 120.979ZM478.75 123.54C478.75 124.929 478.321 125.86 477.574 126.55L480.287 129.49C481.966 127.94 482.75 125.884 482.75 123.54H478.75ZM477.574 126.55C476.779 127.284 475.745 127.7 474.31 127.7V131.7C476.609 131.7 478.655 130.996 480.287 129.49L477.574 126.55ZM474.31 127.7C473.05 127.7 471.85 127.165 470.66 125.752L467.6 128.328C469.397 130.462 471.651 131.7 474.31 131.7V127.7ZM470.742 125.855L446.662 93.0955L443.439 95.4645L467.519 128.225L470.742 125.855ZM443.706 92.7993L431.526 103.859L434.215 106.821L446.395 95.7606L443.706 92.7993ZM430.87 105.34V123.4H434.87V105.34H430.87ZM430.87 123.4C430.87 124.614 430.451 125.577 429.549 126.414L432.271 129.346C433.983 127.756 434.87 125.733 434.87 123.4H430.87ZM429.496 126.466C428.672 127.29 427.693 127.7 426.43 127.7V131.7C428.714 131.7 430.722 130.896 432.325 129.294L429.496 126.466Z" fill="#2E3A19" mask="url(#path-3-outside-2_68_13)"/>
<defs>
<filter id="filter0_d_68_13" x="2.72021" y="26.0996" width="272.202" height="143.801" filterUnits="userSpaceOnUse" color-interpolation-filters="sRGB">
<feFlood flood-opacity="0" result="BackgroundImageFix"/>
<feColorMatrix in="SourceAlpha" type="matrix" values="0 0 0 0 0 0 0 0 0 0 0 0 0 0 0 0 0 0 127 0" result="hardAlpha"/>
<feOffset dy="4"/>
<feGaussianBlur stdDeviation="2"/>
<feComposite in2="hardAlpha" operator="out"/>
<feColorMatrix type="matrix" values="0 0 0 0 0 0 0 0 0 0 0 0 0 0 0 0 0 0 0.25 0"/>
<feBlend mode="normal" in2="BackgroundImageFix" result="effect1_dropShadow_68_13"/>
<feBlend mode="normal" in="SourceGraphic" in2="effect1_dropShadow_68_13" result="shape"/>
</filter>
</defs>
</svg>
