<svg width="622" height="210" viewBox="0 0 622 210" fill="none" xmlns="http://www.w3.org/2000/svg">
<g filter="url(#filter0_d_76_24)">
<mask id="path-1-outside-1_76_24" maskUnits="userSpaceOnUse" x="140" y="64" width="269" height="140" fill="black">
<rect fill="white" x="140" y="64" width="269" height="140"/>
<path d="M176.6 170.4C171 170.4 165.587 168.953 160.36 166.06C155.227 163.167 150.98 158.967 147.62 153.46C144.353 147.953 142.72 141.233 142.72 133.3C142.72 125.367 144.353 118.647 147.62 113.14C150.98 107.633 155.227 103.433 160.36 100.54C165.587 97.6467 171 96.2 176.6 96.2C181.547 96.2 185.98 97.1333 189.9 99C193.82 100.867 197.367 103.48 200.54 106.84V72.54C200.54 70.6733 201.147 69.1333 202.36 67.92C203.667 66.7067 205.207 66.1 206.98 66.1C208.753 66.1 210.247 66.7067 211.46 67.92C212.673 69.1333 213.28 70.6733 213.28 72.54V163.4C213.28 165.173 212.673 166.667 211.46 167.88C210.247 169.093 208.753 169.7 206.98 169.7C205.207 169.7 203.667 169.093 202.36 167.88C201.147 166.667 200.54 165.173 200.54 163.4V159.76C197.367 163.12 193.82 165.733 189.9 167.6C185.98 169.467 181.547 170.4 176.6 170.4ZM178.42 158.5C182.993 158.5 187.147 157.52 190.88 155.56C194.613 153.507 197.833 150.987 200.54 148V118.6C197.833 115.613 194.613 113.14 190.88 111.18C187.147 109.127 182.993 108.1 178.42 108.1C171.793 108.1 166.287 110.247 161.9 114.54C157.607 118.74 155.46 124.993 155.46 133.3C155.46 141.513 157.607 147.767 161.9 152.06C166.287 156.353 171.793 158.5 178.42 158.5ZM241.4 83.04C239.44 83.04 237.76 82.34 236.36 80.94C234.96 79.54 234.26 77.86 234.26 75.9V75.34C234.26 73.38 234.96 71.7 236.36 70.3C237.76 68.9 239.44 68.2 241.4 68.2H242.24C244.2 68.2 245.88 68.9 247.28 70.3C248.68 71.7 249.38 73.38 249.38 75.34V75.9C249.38 77.86 248.68 79.54 247.28 80.94C245.88 82.34 244.2 83.04 242.24 83.04H241.4ZM241.68 169.7C239.907 169.7 238.414 169.093 237.2 167.88C235.987 166.667 235.38 165.173 235.38 163.4V103.34C235.38 101.473 235.987 99.9333 237.2 98.72C238.414 97.5067 239.907 96.9 241.68 96.9C243.547 96.9 245.087 97.5067 246.3 98.72C247.514 99.9333 248.12 101.473 248.12 103.34V163.4C248.12 165.173 247.514 166.667 246.3 167.88C245.087 169.093 243.547 169.7 241.68 169.7ZM286.204 201.9C284.524 201.9 283.077 201.293 281.864 200.08C280.744 198.867 280.184 197.42 280.184 195.74C280.184 194.9 280.324 194.153 280.604 193.5L289.704 170.12L263.384 106C263.29 105.627 263.15 105.207 262.964 104.74C262.87 104.273 262.824 103.807 262.824 103.34C262.824 101.567 263.43 100.073 264.644 98.86C265.857 97.5533 267.35 96.9 269.124 96.9C270.43 96.9 271.597 97.2733 272.624 98.02C273.744 98.7667 274.537 99.7 275.004 100.82L296.564 154.3L318.544 101.1C319.104 99.7933 319.85 98.7667 320.784 98.02C321.81 97.2733 323.024 96.9 324.424 96.9C326.197 96.9 327.69 97.5533 328.904 98.86C330.117 100.073 330.724 101.567 330.724 103.34C330.724 104.18 330.584 104.973 330.304 105.72L292.084 197.56C291.524 198.773 290.777 199.8 289.844 200.64C288.91 201.48 287.697 201.9 286.204 201.9ZM376.402 170.4C365.015 170.4 356.102 167.18 349.662 160.74C343.315 154.207 340.142 145.06 340.142 133.3C340.142 126.953 341.309 120.98 343.642 115.38C345.975 109.687 349.615 105.067 354.562 101.52C359.509 97.9733 365.855 96.2 373.602 96.2C380.789 96.2 386.855 97.88 391.802 101.24C396.749 104.507 400.482 108.8 403.002 114.12C405.615 119.44 406.922 125.227 406.922 131.48C406.922 133.253 406.315 134.747 405.102 135.96C403.982 137.173 402.442 137.78 400.482 137.78H353.022C353.769 144.033 356.149 149.073 360.162 152.9C364.175 156.633 369.962 158.5 377.522 158.5C381.722 158.5 385.269 158.127 388.162 157.38C391.055 156.54 393.809 155.467 396.422 154.16C397.169 153.787 398.009 153.6 398.942 153.6C400.435 153.6 401.742 154.113 402.862 155.14C403.982 156.167 404.542 157.473 404.542 159.06C404.542 160.18 404.169 161.207 403.422 162.14C402.769 162.98 401.929 163.68 400.902 164.24C397.822 166.013 394.462 167.507 390.822 168.72C387.275 169.84 382.469 170.4 376.402 170.4ZM353.022 127.42H394.322C394.042 122.567 392.782 118.647 390.542 115.66C388.395 112.673 385.782 110.48 382.702 109.08C379.622 107.68 376.589 106.98 373.602 106.98C370.615 106.98 367.582 107.68 364.502 109.08C361.422 110.48 358.809 112.673 356.662 115.66C354.515 118.647 353.302 122.567 353.022 127.42Z"/>
</mask>
<path d="M176.6 170.4C171 170.4 165.587 168.953 160.36 166.06C155.227 163.167 150.98 158.967 147.62 153.46C144.353 147.953 142.72 141.233 142.72 133.3C142.72 125.367 144.353 118.647 147.62 113.14C150.98 107.633 155.227 103.433 160.36 100.54C165.587 97.6467 171 96.2 176.6 96.2C181.547 96.2 185.98 97.1333 189.9 99C193.82 100.867 197.367 103.48 200.54 106.84V72.54C200.54 70.6733 201.147 69.1333 202.36 67.92C203.667 66.7067 205.207 66.1 206.98 66.1C208.753 66.1 210.247 66.7067 211.46 67.92C212.673 69.1333 213.28 70.6733 213.28 72.54V163.4C213.28 165.173 212.673 166.667 211.46 167.88C210.247 169.093 208.753 169.7 206.98 169.7C205.207 169.7 203.667 169.093 202.36 167.88C201.147 166.667 200.54 165.173 200.54 163.4V159.76C197.367 163.12 193.82 165.733 189.9 167.6C185.98 169.467 181.547 170.4 176.6 170.4ZM178.42 158.5C182.993 158.5 187.147 157.52 190.88 155.56C194.613 153.507 197.833 150.987 200.54 148V118.6C197.833 115.613 194.613 113.14 190.88 111.18C187.147 109.127 182.993 108.1 178.42 108.1C171.793 108.1 166.287 110.247 161.9 114.54C157.607 118.74 155.46 124.993 155.46 133.3C155.46 141.513 157.607 147.767 161.9 152.06C166.287 156.353 171.793 158.5 178.42 158.5ZM241.4 83.04C239.44 83.04 237.76 82.34 236.36 80.94C234.96 79.54 234.26 77.86 234.26 75.9V75.34C234.26 73.38 234.96 71.7 236.36 70.3C237.76 68.9 239.44 68.2 241.4 68.2H242.24C244.2 68.2 245.88 68.9 247.28 70.3C248.68 71.7 249.38 73.38 249.38 75.34V75.9C249.38 77.86 248.68 79.54 247.28 80.94C245.88 82.34 244.2 83.04 242.24 83.04H241.4ZM241.68 169.7C239.907 169.7 238.414 169.093 237.2 167.88C235.987 166.667 235.38 165.173 235.38 163.4V103.34C235.38 101.473 235.987 99.9333 237.2 98.72C238.414 97.5067 239.907 96.9 241.68 96.9C243.547 96.9 245.087 97.5067 246.3 98.72C247.514 99.9333 248.12 101.473 248.12 103.34V163.4C248.12 165.173 247.514 166.667 246.3 167.88C245.087 169.093 243.547 169.7 241.68 169.7ZM286.204 201.9C284.524 201.9 283.077 201.293 281.864 200.08C280.744 198.867 280.184 197.42 280.184 195.74C280.184 194.9 280.324 194.153 280.604 193.5L289.704 170.12L263.384 106C263.29 105.627 263.15 105.207 262.964 104.74C262.87 104.273 262.824 103.807 262.824 103.34C262.824 101.567 263.43 100.073 264.644 98.86C265.857 97.5533 267.35 96.9 269.124 96.9C270.43 96.9 271.597 97.2733 272.624 98.02C273.744 98.7667 274.537 99.7 275.004 100.82L296.564 154.3L318.544 101.1C319.104 99.7933 319.85 98.7667 320.784 98.02C321.81 97.2733 323.024 96.9 324.424 96.9C326.197 96.9 327.69 97.5533 328.904 98.86C330.117 100.073 330.724 101.567 330.724 103.34C330.724 104.18 330.584 104.973 330.304 105.72L292.084 197.56C291.524 198.773 290.777 199.8 289.844 200.64C288.91 201.48 287.697 201.9 286.204 201.9ZM376.402 170.4C365.015 170.4 356.102 167.18 349.662 160.74C343.315 154.207 340.142 145.06 340.142 133.3C340.142 126.953 341.309 120.98 343.642 115.38C345.975 109.687 349.615 105.067 354.562 101.52C359.509 97.9733 365.855 96.2 373.602 96.2C380.789 96.2 386.855 97.88 391.802 101.24C396.749 104.507 400.482 108.8 403.002 114.12C405.615 119.44 406.922 125.227 406.922 131.48C406.922 133.253 406.315 134.747 405.102 135.96C403.982 137.173 402.442 137.78 400.482 137.78H353.022C353.769 144.033 356.149 149.073 360.162 152.9C364.175 156.633 369.962 158.5 377.522 158.5C381.722 158.5 385.269 158.127 388.162 157.38C391.055 156.54 393.809 155.467 396.422 154.16C397.169 153.787 398.009 153.6 398.942 153.6C400.435 153.6 401.742 154.113 402.862 155.14C403.982 156.167 404.542 157.473 404.542 159.06C404.542 160.18 404.169 161.207 403.422 162.14C402.769 162.98 401.929 163.68 400.902 164.24C397.822 166.013 394.462 167.507 390.822 168.72C387.275 169.84 382.469 170.4 376.402 170.4ZM353.022 127.42H394.322C394.042 122.567 392.782 118.647 390.542 115.66C388.395 112.673 385.782 110.48 382.702 109.08C379.622 107.68 376.589 106.98 373.602 106.98C370.615 106.98 367.582 107.68 364.502 109.08C361.422 110.48 358.809 112.673 356.662 115.66C354.515 118.647 353.302 122.567 353.022 127.42Z" fill="#85A52B"/>
<path d="M160.36 166.06L159.378 167.802L159.385 167.806L159.391 167.81L160.36 166.06ZM147.62 153.46L145.9 154.48L145.906 154.491L145.913 154.502L147.62 153.46ZM147.62 113.14L145.913 112.098L145.906 112.109L145.9 112.12L147.62 113.14ZM160.36 100.54L159.391 98.7902L159.385 98.7939L159.378 98.7977L160.36 100.54ZM189.9 99L189.04 100.806L189.04 100.806L189.9 99ZM200.54 106.84L199.086 108.213L202.54 111.87V106.84H200.54ZM202.36 67.92L200.999 66.4544L200.972 66.4796L200.946 66.5058L202.36 67.92ZM211.46 67.92L212.874 66.5058L212.874 66.5058L211.46 67.92ZM211.46 167.88L212.874 169.294L212.874 169.294L211.46 167.88ZM202.36 167.88L200.946 169.294L200.972 169.32L200.999 169.346L202.36 167.88ZM200.54 159.76H202.54V154.73L199.086 158.387L200.54 159.76ZM189.9 167.6L189.04 165.794L189.9 167.6ZM190.88 155.56L191.81 157.331L191.827 157.322L191.844 157.312L190.88 155.56ZM200.54 148L202.022 149.343L202.54 148.771V148H200.54ZM200.54 118.6H202.54V117.829L202.022 117.257L200.54 118.6ZM190.88 111.18L189.916 112.932L189.933 112.942L189.95 112.951L190.88 111.18ZM161.9 114.54L163.299 115.97L163.299 115.969L161.9 114.54ZM161.9 152.06L160.486 153.474L160.493 153.482L160.501 153.489L161.9 152.06ZM176.6 168.4C171.361 168.4 166.279 167.051 161.329 164.31L159.391 167.81C164.894 170.856 170.639 172.4 176.6 172.4V168.4ZM161.342 164.318C156.534 161.608 152.527 157.662 149.327 152.418L145.913 154.502C149.433 160.272 153.919 164.726 159.378 167.802L161.342 164.318ZM149.34 152.44C146.296 147.308 144.72 140.96 144.72 133.3H140.72C140.72 141.507 142.411 148.599 145.9 154.48L149.34 152.44ZM144.72 133.3C144.72 125.64 146.296 119.292 149.34 114.16L145.9 112.12C142.411 118.001 140.72 125.093 140.72 133.3H144.72ZM149.327 114.182C152.527 108.938 156.534 104.992 161.342 102.282L159.378 98.7977C153.919 101.874 149.433 106.328 145.913 112.098L149.327 114.182ZM161.329 102.29C166.279 99.5492 171.361 98.2 176.6 98.2V94.2C170.639 94.2 164.894 95.7441 159.391 98.7902L161.329 102.29ZM176.6 98.2C181.291 98.2 185.424 99.0837 189.04 100.806L190.76 97.1943C186.536 95.183 181.803 94.2 176.6 94.2V98.2ZM189.04 100.806C192.723 102.559 196.071 105.021 199.086 108.213L201.994 105.467C198.662 101.939 194.917 99.1739 190.76 97.1943L189.04 100.806ZM202.54 106.84V72.54H198.54V106.84H202.54ZM202.54 72.54C202.54 71.1524 202.971 70.1376 203.774 69.3342L200.946 66.5058C199.323 68.129 198.54 70.1943 198.54 72.54H202.54ZM203.721 69.3856C204.66 68.5136 205.715 68.1 206.98 68.1V64.1C204.699 64.1 202.673 64.8997 200.999 66.4544L203.721 69.3856ZM206.98 68.1C208.243 68.1 209.221 68.5097 210.046 69.3342L212.874 66.5058C211.272 64.9036 209.264 64.1 206.98 64.1V68.1ZM210.046 69.3342C210.849 70.1376 211.28 71.1524 211.28 72.54H215.28C215.28 70.1943 214.497 68.129 212.874 66.5058L210.046 69.3342ZM211.28 72.54V163.4H215.28V72.54H211.28ZM211.28 163.4C211.28 164.663 210.87 165.641 210.046 166.466L212.874 169.294C214.476 167.692 215.28 165.684 215.28 163.4H211.28ZM210.046 166.466C209.221 167.29 208.243 167.7 206.98 167.7V171.7C209.264 171.7 211.272 170.896 212.874 169.294L210.046 166.466ZM206.98 167.7C205.715 167.7 204.66 167.286 203.721 166.414L200.999 169.346C202.673 170.9 204.699 171.7 206.98 171.7V167.7ZM203.774 166.466C202.95 165.641 202.54 164.663 202.54 163.4H198.54C198.54 165.684 199.344 167.692 200.946 169.294L203.774 166.466ZM202.54 163.4V159.76H198.54V163.4H202.54ZM199.086 158.387C196.071 161.579 192.723 164.041 189.04 165.794L190.76 169.406C194.917 167.426 198.662 164.661 201.994 161.133L199.086 158.387ZM189.04 165.794C185.424 167.516 181.291 168.4 176.6 168.4V172.4C181.803 172.4 186.536 171.417 190.76 169.406L189.04 165.794ZM178.42 160.5C183.289 160.5 187.766 159.454 191.81 157.331L189.95 153.789C186.528 155.586 182.698 156.5 178.42 156.5V160.5ZM191.844 157.312C195.76 155.158 199.158 152.503 202.022 149.343L199.058 146.657C196.509 149.47 193.466 151.855 189.916 153.808L191.844 157.312ZM202.54 148V118.6H198.54V148H202.54ZM202.022 117.257C199.151 114.088 195.741 111.473 191.81 109.409L189.95 112.951C193.486 114.807 196.516 117.138 199.058 119.943L202.022 117.257ZM191.844 109.428C187.794 107.2 183.305 106.1 178.42 106.1V110.1C182.682 110.1 186.5 111.053 189.916 112.932L191.844 109.428ZM178.42 106.1C171.316 106.1 165.293 108.421 160.501 113.111L163.299 115.969C167.28 112.073 172.27 110.1 178.42 110.1V106.1ZM160.501 113.11C155.695 117.812 153.46 124.666 153.46 133.3H157.46C157.46 125.321 159.518 119.668 163.299 115.97L160.501 113.11ZM153.46 133.3C153.46 141.851 155.7 148.689 160.486 153.474L163.314 150.646C159.513 146.845 157.46 141.175 157.46 133.3H153.46ZM160.501 153.489C165.293 158.179 171.316 160.5 178.42 160.5V156.5C172.27 156.5 167.28 154.527 163.299 150.631L160.501 153.489ZM236.36 80.94L234.946 82.3542L234.946 82.3542L236.36 80.94ZM247.28 80.94L248.695 82.3542L248.695 82.3542L247.28 80.94ZM237.2 167.88L238.615 166.466L238.615 166.466L237.2 167.88ZM237.2 98.72L238.615 100.134L238.615 100.134L237.2 98.72ZM246.3 98.72L247.715 97.3058L246.3 98.72ZM246.3 167.88L247.715 169.294L247.715 169.294L246.3 167.88ZM241.4 81.04C239.977 81.04 238.804 80.555 237.775 79.5258L234.946 82.3542C236.717 84.125 238.904 85.04 241.4 85.04V81.04ZM237.775 79.5258C236.745 78.4966 236.26 77.3235 236.26 75.9H232.26C232.26 78.3965 233.175 80.5834 234.946 82.3542L237.775 79.5258ZM236.26 75.9V75.34H232.26V75.9H236.26ZM236.26 75.34C236.26 73.9164 236.745 72.7434 237.775 71.7142L234.946 68.8858C233.175 70.6566 232.26 72.8435 232.26 75.34H236.26ZM237.775 71.7142C238.804 70.685 239.977 70.2 241.4 70.2V66.2C238.904 66.2 236.717 67.115 234.946 68.8858L237.775 71.7142ZM241.4 70.2H242.24V66.2H241.4V70.2ZM242.24 70.2C243.664 70.2 244.837 70.685 245.866 71.7142L248.695 68.8858C246.924 67.115 244.737 66.2 242.24 66.2V70.2ZM245.866 71.7142C246.895 72.7434 247.38 73.9164 247.38 75.34H251.38C251.38 72.8435 250.465 70.6566 248.695 68.8858L245.866 71.7142ZM247.38 75.34V75.9H251.38V75.34H247.38ZM247.38 75.9C247.38 77.3235 246.895 78.4966 245.866 79.5258L248.695 82.3542C250.465 80.5834 251.38 78.3965 251.38 75.9H247.38ZM245.866 79.5258C244.837 80.555 243.664 81.04 242.24 81.04V85.04C244.737 85.04 246.924 84.125 248.695 82.3542L245.866 79.5258ZM242.24 81.04H241.4V85.04H242.24V81.04ZM241.68 167.7C240.418 167.7 239.439 167.29 238.615 166.466L235.786 169.294C237.388 170.896 239.396 171.7 241.68 171.7V167.7ZM238.615 166.466C237.79 165.641 237.38 164.663 237.38 163.4H233.38C233.38 165.684 234.184 167.692 235.786 169.294L238.615 166.466ZM237.38 163.4V103.34H233.38V163.4H237.38ZM237.38 103.34C237.38 101.952 237.811 100.938 238.615 100.134L235.786 97.3058C234.163 98.929 233.38 100.994 233.38 103.34H237.38ZM238.615 100.134C239.439 99.3097 240.418 98.9 241.68 98.9V94.9C239.396 94.9 237.388 95.7036 235.786 97.3058L238.615 100.134ZM241.68 98.9C243.068 98.9 244.083 99.3308 244.886 100.134L247.715 97.3058C246.091 95.6826 244.026 94.9 241.68 94.9V98.9ZM244.886 100.134C245.69 100.938 246.12 101.952 246.12 103.34H250.12C250.12 100.994 249.338 98.929 247.715 97.3058L244.886 100.134ZM246.12 103.34V163.4H250.12V103.34H246.12ZM246.12 163.4C246.12 164.663 245.711 165.641 244.886 166.466L247.715 169.294C249.317 167.692 250.12 165.684 250.12 163.4H246.12ZM244.886 166.466C244.083 167.269 243.068 167.7 241.68 167.7V171.7C244.026 171.7 246.091 170.917 247.715 169.294L244.886 166.466ZM281.864 200.08L280.394 201.437L280.421 201.466L280.449 201.494L281.864 200.08ZM280.604 193.5L282.442 194.288L282.455 194.257L282.467 194.225L280.604 193.5ZM289.704 170.12L291.567 170.845L291.857 170.1L291.554 169.361L289.704 170.12ZM263.384 106L261.443 106.485L261.478 106.626L261.533 106.759L263.384 106ZM262.964 104.74L261.002 105.132L261.038 105.312L261.107 105.483L262.964 104.74ZM264.644 98.86L266.058 100.274L266.084 100.248L266.109 100.221L264.644 98.86ZM272.624 98.02L271.447 99.6375L271.48 99.6615L271.514 99.6841L272.624 98.02ZM275.004 100.82L276.859 100.072L276.854 100.061L276.85 100.051L275.004 100.82ZM296.564 154.3L294.709 155.048L296.541 159.593L298.412 155.064L296.564 154.3ZM318.544 101.1L316.705 100.312L316.7 100.324L316.695 100.336L318.544 101.1ZM320.784 98.02L319.607 96.4025L319.57 96.4296L319.534 96.4583L320.784 98.02ZM328.904 98.86L327.438 100.221L327.463 100.248L327.489 100.274L328.904 98.86ZM330.304 105.72L332.15 106.488L332.164 106.456L332.176 106.422L330.304 105.72ZM292.084 197.56L293.9 198.398L293.915 198.364L293.93 198.328L292.084 197.56ZM289.844 200.64L288.506 199.153L289.844 200.64ZM286.204 199.9C285.067 199.9 284.125 199.513 283.278 198.666L280.449 201.494C282.029 203.074 283.981 203.9 286.204 203.9V199.9ZM283.333 198.723C282.561 197.887 282.184 196.927 282.184 195.74H278.184C278.184 197.913 278.926 199.847 280.394 201.437L283.333 198.723ZM282.184 195.74C282.184 195.122 282.286 194.651 282.442 194.288L278.765 192.712C278.361 193.655 278.184 194.678 278.184 195.74H282.184ZM282.467 194.225L291.567 170.845L287.84 169.395L278.74 192.775L282.467 194.225ZM291.554 169.361L265.234 105.241L261.533 106.759L287.853 170.879L291.554 169.361ZM265.324 105.515C265.203 105.032 265.031 104.524 264.821 103.997L261.107 105.483C261.269 105.889 261.377 106.221 261.443 106.485L265.324 105.515ZM264.925 104.348C264.857 104.008 264.824 103.672 264.824 103.34H260.824C260.824 103.941 260.884 104.539 261.002 105.132L264.925 104.348ZM264.824 103.34C264.824 102.077 265.233 101.099 266.058 100.274L263.229 97.4458C261.627 99.048 260.824 101.056 260.824 103.34H264.824ZM266.109 100.221C266.946 99.3192 267.91 98.9 269.124 98.9V94.9C266.791 94.9 264.767 95.7875 263.178 97.4991L266.109 100.221ZM269.124 98.9C270.021 98.9 270.773 99.1471 271.447 99.6375L273.8 96.4025C272.421 95.3996 270.84 94.9 269.124 94.9V98.9ZM271.514 99.6841C272.343 100.237 272.859 100.873 273.157 101.589L276.85 100.051C276.215 98.527 275.144 97.2967 273.733 96.3559L271.514 99.6841ZM273.149 101.568L294.709 155.048L298.419 153.552L276.859 100.072L273.149 101.568ZM298.412 155.064L320.392 101.864L316.695 100.336L294.715 153.536L298.412 155.064ZM320.382 101.888C320.837 100.827 321.401 100.087 322.033 99.5817L319.534 96.4583C318.299 97.4461 317.37 98.7601 316.705 100.312L320.382 101.888ZM321.96 99.6375C322.61 99.165 323.401 98.9 324.424 98.9V94.9C322.647 94.9 321.011 95.3817 319.607 96.4025L321.96 99.6375ZM324.424 98.9C325.637 98.9 326.601 99.3192 327.438 100.221L330.369 97.4991C328.78 95.7875 326.757 94.9 324.424 94.9V98.9ZM327.489 100.274C328.314 101.099 328.724 102.077 328.724 103.34H332.724C332.724 101.056 331.92 99.048 330.318 97.4458L327.489 100.274ZM328.724 103.34C328.724 103.953 328.622 104.507 328.431 105.018L332.176 106.422C332.545 105.439 332.724 104.407 332.724 103.34H328.724ZM328.457 104.952L290.237 196.792L293.93 198.328L332.15 106.488L328.457 104.952ZM290.268 196.722C289.814 197.705 289.225 198.506 288.506 199.153L291.182 202.127C292.329 201.094 293.233 199.842 293.9 198.398L290.268 196.722ZM288.506 199.153C288.007 199.602 287.302 199.9 286.204 199.9V203.9C288.092 203.9 289.814 203.358 291.182 202.127L288.506 199.153ZM349.662 160.74L348.227 162.134L348.237 162.144L348.248 162.154L349.662 160.74ZM343.642 115.38L345.488 116.149L345.492 116.138L343.642 115.38ZM354.562 101.52L355.727 103.145L355.727 103.145L354.562 101.52ZM391.802 101.24L390.678 102.894L390.689 102.902L390.7 102.909L391.802 101.24ZM403.002 114.12L401.194 114.976L401.2 114.989L401.207 115.002L403.002 114.12ZM405.102 135.96L403.688 134.546L403.659 134.574L403.632 134.603L405.102 135.96ZM353.022 137.78V135.78H350.769L351.036 138.017L353.022 137.78ZM360.162 152.9L358.782 154.347L358.791 154.356L358.8 154.364L360.162 152.9ZM388.162 157.38L388.662 159.317L388.691 159.309L388.72 159.301L388.162 157.38ZM396.422 154.16L395.527 152.371L395.527 152.371L396.422 154.16ZM402.862 155.14L404.213 153.666L402.862 155.14ZM403.422 162.14L401.86 160.891L401.852 160.901L401.843 160.912L403.422 162.14ZM400.902 164.24L399.944 162.484L399.924 162.495L399.904 162.507L400.902 164.24ZM390.822 168.72L391.424 170.627L391.439 170.622L391.454 170.617L390.822 168.72ZM353.022 127.42L351.025 127.305L350.903 129.42H353.022V127.42ZM394.322 127.42V129.42H396.441L396.319 127.305L394.322 127.42ZM390.542 115.66L388.918 116.827L388.93 116.844L388.942 116.86L390.542 115.66ZM382.702 109.08L383.529 107.259L383.529 107.259L382.702 109.08ZM364.502 109.08L363.674 107.259L363.674 107.259L364.502 109.08ZM376.402 168.4C365.405 168.4 357.052 165.302 351.076 159.326L348.248 162.154C355.151 169.058 364.625 172.4 376.402 172.4V168.4ZM351.096 159.346C345.209 153.286 342.142 144.697 342.142 133.3H338.142C338.142 145.423 341.421 155.127 348.227 162.134L351.096 159.346ZM342.142 133.3C342.142 127.205 343.261 121.494 345.488 116.149L341.796 114.611C339.356 120.466 338.142 126.702 338.142 133.3H342.142ZM345.492 116.138C347.685 110.789 351.089 106.471 355.727 103.145L353.397 99.8946C348.141 103.663 344.265 108.585 341.791 114.622L345.492 116.138ZM355.727 103.145C360.252 99.9015 366.159 98.2 373.602 98.2V94.2C365.552 94.2 358.765 96.0452 353.397 99.8946L355.727 103.145ZM373.602 98.2C380.47 98.2 386.125 99.8017 390.678 102.894L392.926 99.5856C387.585 95.9582 381.107 94.2 373.602 94.2V98.2ZM390.7 102.909C395.344 105.976 398.832 109.989 401.194 114.976L404.809 113.264C402.132 107.611 398.153 103.038 392.904 99.5711L390.7 102.909ZM401.207 115.002C403.678 120.032 404.922 125.515 404.922 131.48H408.922C408.922 124.938 407.553 118.848 404.797 113.238L401.207 115.002ZM404.922 131.48C404.922 132.743 404.512 133.721 403.688 134.546L406.516 137.374C408.118 135.772 408.922 133.764 408.922 131.48H404.922ZM403.632 134.603C402.962 135.33 401.997 135.78 400.482 135.78V139.78C402.887 139.78 405.002 139.017 406.571 137.317L403.632 134.603ZM400.482 135.78H353.022V139.78H400.482V135.78ZM351.036 138.017C351.83 144.666 354.387 150.157 358.782 154.347L361.542 151.453C357.91 147.99 355.707 143.401 355.008 137.543L351.036 138.017ZM358.8 154.364C363.304 158.554 369.65 160.5 377.522 160.5V156.5C370.274 156.5 365.047 154.712 361.524 151.436L358.8 154.364ZM377.522 160.5C381.828 160.5 385.554 160.119 388.662 159.317L387.662 155.443C384.983 156.135 381.616 156.5 377.522 156.5V160.5ZM388.72 159.301C391.725 158.428 394.592 157.311 397.316 155.949L395.527 152.371C393.025 153.622 390.385 154.652 387.604 155.459L388.72 159.301ZM397.316 155.949C397.754 155.73 398.282 155.6 398.942 155.6V151.6C397.735 151.6 396.583 151.843 395.527 152.371L397.316 155.949ZM398.942 155.6C399.925 155.6 400.752 155.919 401.51 156.614L404.213 153.666C402.732 152.307 400.945 151.6 398.942 151.6V155.6ZM401.51 156.614C402.197 157.244 402.542 158.006 402.542 159.06H406.542C406.542 156.941 405.767 155.09 404.213 153.666L401.51 156.614ZM402.542 159.06C402.542 159.694 402.344 160.286 401.86 160.891L404.984 163.389C405.994 162.127 406.542 160.666 406.542 159.06H402.542ZM401.843 160.912C401.374 161.515 400.754 162.043 399.944 162.484L401.86 165.996C403.103 165.317 404.163 164.445 405.001 163.368L401.843 160.912ZM399.904 162.507C396.949 164.208 393.712 165.648 390.189 166.823L391.454 170.617C395.211 169.365 398.695 167.818 401.9 165.973L399.904 162.507ZM390.22 166.813C386.951 167.845 382.376 168.4 376.402 168.4V172.4C382.561 172.4 387.599 171.835 391.424 170.627L390.22 166.813ZM353.022 129.42H394.322V125.42H353.022V129.42ZM396.319 127.305C396.023 122.176 394.68 117.844 392.142 114.46L388.942 116.86C390.884 119.45 392.061 122.957 392.325 127.535L396.319 127.305ZM392.166 114.493C389.834 111.248 386.955 108.816 383.529 107.259L381.874 110.901C384.609 112.144 386.957 114.099 388.918 116.827L392.166 114.493ZM383.529 107.259C380.224 105.757 376.91 104.98 373.602 104.98V108.98C376.267 108.98 379.02 109.603 381.874 110.901L383.529 107.259ZM373.602 104.98C370.294 104.98 366.98 105.757 363.674 107.259L365.329 110.901C368.184 109.603 370.936 108.98 373.602 108.98V104.98ZM363.674 107.259C360.249 108.816 357.37 111.248 355.038 114.493L358.286 116.827C360.247 114.099 362.595 112.144 365.329 110.901L363.674 107.259ZM355.038 114.493C352.609 117.872 351.32 122.192 351.025 127.305L355.019 127.535C355.284 122.942 356.421 119.421 358.286 116.827L355.038 114.493Z" fill="#819C33" mask="url(#path-1-outside-1_76_24)"/>
</g>
<mask id="path-3-outside-2_76_24" maskUnits="userSpaceOnUse" x="413" y="64" width="206" height="109" fill="black">
<rect fill="white" x="413" y="64" width="206" height="109"/>
<path d="M448.7 170.4C447.02 170.4 445.013 170.213 442.68 169.84C440.44 169.56 438.2 168.86 435.96 167.74C433.813 166.527 431.993 164.66 430.5 162.14C429.007 159.62 428.26 156.213 428.26 151.92V108.52H418.32C416.547 108.52 415.66 107.633 415.66 105.86C415.66 104.927 416.08 104.133 416.92 103.48L435.96 84.86C436.147 84.6733 436.427 84.44 436.8 84.16C437.267 83.7867 437.78 83.6 438.34 83.6C439.087 83.6 439.693 83.88 440.16 84.44C440.72 85 441 85.6533 441 86.4V97.6H456.82C458.407 97.6 459.713 98.1133 460.74 99.14C461.767 100.167 462.28 101.473 462.28 103.06C462.28 104.553 461.767 105.86 460.74 106.98C459.713 108.007 458.407 108.52 456.82 108.52H441V150.8C441 153.507 441.513 155.467 442.54 156.68C443.567 157.893 444.78 158.64 446.18 158.92C447.673 159.107 448.98 159.2 450.1 159.2C452.34 159.2 453.973 159.013 455 158.64C456.12 158.173 457.287 157.94 458.5 157.94C459.807 157.94 460.973 158.407 462 159.34C463.027 160.273 463.54 161.487 463.54 162.98C463.54 165.127 462.467 166.76 460.32 167.88C458.64 168.627 456.82 169.233 454.86 169.7C452.993 170.167 450.94 170.4 448.7 170.4ZM495.717 170.4C491.704 170.4 487.924 169.56 484.377 167.88C480.924 166.2 478.124 163.82 475.977 160.74C473.924 157.567 472.897 153.787 472.897 149.4C472.897 142.773 475.51 137.36 480.737 133.16C486.057 128.867 494.177 126.72 505.097 126.72H522.037V125.6C522.037 119.347 520.497 114.913 517.417 112.3C514.337 109.593 509.624 108.24 503.277 108.24C499.357 108.24 495.904 108.613 492.917 109.36C490.024 110.013 487.27 110.76 484.657 111.6C483.91 111.787 483.304 111.88 482.837 111.88C481.437 111.88 480.224 111.367 479.197 110.34C478.17 109.313 477.657 108.053 477.657 106.56C477.657 104.04 478.87 102.267 481.297 101.24C484.564 99.84 488.157 98.6733 492.077 97.74C496.09 96.7133 500.57 96.2 505.517 96.2C512.33 96.2 517.884 97.5533 522.177 100.26C526.47 102.967 529.644 106.42 531.697 110.62C533.75 114.82 534.777 119.207 534.777 123.78V163.4C534.777 165.173 534.124 166.667 532.817 167.88C531.604 169.093 530.11 169.7 528.337 169.7C526.564 169.7 525.07 169.093 523.857 167.88C522.644 166.667 522.037 165.173 522.037 163.4V159.76C519.517 162.373 516.157 164.8 511.957 167.04C507.757 169.28 502.344 170.4 495.717 170.4ZM500.477 159.2C504.864 159.2 508.97 158.127 512.797 155.98C516.624 153.833 519.704 151.407 522.037 148.7V136.94H506.777C500.244 136.94 495.064 137.78 491.237 139.46C487.504 141.14 485.637 143.987 485.637 148C485.637 150.987 486.664 153.6 488.717 155.84C490.864 158.08 494.784 159.2 500.477 159.2ZM562.43 169.7C560.657 169.7 559.164 169.093 557.95 167.88C556.737 166.667 556.13 165.173 556.13 163.4V72.54C556.13 70.7667 556.737 69.2733 557.95 68.06C559.164 66.7533 560.657 66.1 562.43 66.1C564.204 66.1 565.697 66.7533 566.91 68.06C568.217 69.2733 568.87 70.7667 568.87 72.54V129.8L602.19 99C602.75 98.5333 603.357 98.1133 604.01 97.74C604.757 97.3667 605.55 97.18 606.39 97.18C608.817 97.18 610.45 97.88 611.29 99.28C612.13 100.587 612.55 101.94 612.55 103.34C612.55 103.9 612.41 104.6 612.13 105.44C611.85 106.187 611.197 107.073 610.17 108.1L590.01 126.16L615.35 159.76C616.284 160.973 616.75 162.233 616.75 163.54C616.75 165.407 616.144 166.9 614.93 168.02C613.717 169.14 612.177 169.7 610.31 169.7C608.35 169.7 606.624 168.813 605.13 167.04L581.05 134.28L568.87 145.34V163.4C568.87 165.173 568.217 166.667 566.91 167.88C565.697 169.093 564.204 169.7 562.43 169.7Z"/>
</mask>
<path d="M448.7 170.4C447.02 170.4 445.013 170.213 442.68 169.84C440.44 169.56 438.2 168.86 435.96 167.74C433.813 166.527 431.993 164.66 430.5 162.14C429.007 159.62 428.26 156.213 428.26 151.92V108.52H418.32C416.547 108.52 415.66 107.633 415.66 105.86C415.66 104.927 416.08 104.133 416.92 103.48L435.96 84.86C436.147 84.6733 436.427 84.44 436.8 84.16C437.267 83.7867 437.78 83.6 438.34 83.6C439.087 83.6 439.693 83.88 440.16 84.44C440.72 85 441 85.6533 441 86.4V97.6H456.82C458.407 97.6 459.713 98.1133 460.74 99.14C461.767 100.167 462.28 101.473 462.28 103.06C462.28 104.553 461.767 105.86 460.74 106.98C459.713 108.007 458.407 108.52 456.82 108.52H441V150.8C441 153.507 441.513 155.467 442.54 156.68C443.567 157.893 444.78 158.64 446.18 158.92C447.673 159.107 448.98 159.2 450.1 159.2C452.34 159.2 453.973 159.013 455 158.64C456.12 158.173 457.287 157.94 458.5 157.94C459.807 157.94 460.973 158.407 462 159.34C463.027 160.273 463.54 161.487 463.54 162.98C463.54 165.127 462.467 166.76 460.32 167.88C458.64 168.627 456.82 169.233 454.86 169.7C452.993 170.167 450.94 170.4 448.7 170.4ZM495.717 170.4C491.704 170.4 487.924 169.56 484.377 167.88C480.924 166.2 478.124 163.82 475.977 160.74C473.924 157.567 472.897 153.787 472.897 149.4C472.897 142.773 475.51 137.36 480.737 133.16C486.057 128.867 494.177 126.72 505.097 126.72H522.037V125.6C522.037 119.347 520.497 114.913 517.417 112.3C514.337 109.593 509.624 108.24 503.277 108.24C499.357 108.24 495.904 108.613 492.917 109.36C490.024 110.013 487.27 110.76 484.657 111.6C483.91 111.787 483.304 111.88 482.837 111.88C481.437 111.88 480.224 111.367 479.197 110.34C478.17 109.313 477.657 108.053 477.657 106.56C477.657 104.04 478.87 102.267 481.297 101.24C484.564 99.84 488.157 98.6733 492.077 97.74C496.09 96.7133 500.57 96.2 505.517 96.2C512.33 96.2 517.884 97.5533 522.177 100.26C526.47 102.967 529.644 106.42 531.697 110.62C533.75 114.82 534.777 119.207 534.777 123.78V163.4C534.777 165.173 534.124 166.667 532.817 167.88C531.604 169.093 530.11 169.7 528.337 169.7C526.564 169.7 525.07 169.093 523.857 167.88C522.644 166.667 522.037 165.173 522.037 163.4V159.76C519.517 162.373 516.157 164.8 511.957 167.04C507.757 169.28 502.344 170.4 495.717 170.4ZM500.477 159.2C504.864 159.2 508.97 158.127 512.797 155.98C516.624 153.833 519.704 151.407 522.037 148.7V136.94H506.777C500.244 136.94 495.064 137.78 491.237 139.46C487.504 141.14 485.637 143.987 485.637 148C485.637 150.987 486.664 153.6 488.717 155.84C490.864 158.08 494.784 159.2 500.477 159.2ZM562.43 169.7C560.657 169.7 559.164 169.093 557.95 167.88C556.737 166.667 556.13 165.173 556.13 163.4V72.54C556.13 70.7667 556.737 69.2733 557.95 68.06C559.164 66.7533 560.657 66.1 562.43 66.1C564.204 66.1 565.697 66.7533 566.91 68.06C568.217 69.2733 568.87 70.7667 568.87 72.54V129.8L602.19 99C602.75 98.5333 603.357 98.1133 604.01 97.74C604.757 97.3667 605.55 97.18 606.39 97.18C608.817 97.18 610.45 97.88 611.29 99.28C612.13 100.587 612.55 101.94 612.55 103.34C612.55 103.9 612.41 104.6 612.13 105.44C611.85 106.187 611.197 107.073 610.17 108.1L590.01 126.16L615.35 159.76C616.284 160.973 616.75 162.233 616.75 163.54C616.75 165.407 616.144 166.9 614.93 168.02C613.717 169.14 612.177 169.7 610.31 169.7C608.35 169.7 606.624 168.813 605.13 167.04L581.05 134.28L568.87 145.34V163.4C568.87 165.173 568.217 166.667 566.91 167.88C565.697 169.093 564.204 169.7 562.43 169.7Z" fill="#33411B"/>
<path d="M442.68 169.84L442.996 167.865L442.962 167.86L442.928 167.855L442.68 169.84ZM435.96 167.74L434.976 169.481L435.02 169.506L435.066 169.529L435.96 167.74ZM430.5 162.14L428.779 163.16L428.779 163.16L430.5 162.14ZM428.26 108.52H430.26V106.52H428.26V108.52ZM416.92 103.48L418.148 105.059L418.237 104.989L418.318 104.91L416.92 103.48ZM435.96 84.86L437.358 86.2899L437.366 86.2821L437.374 86.2742L435.96 84.86ZM436.8 84.16L438 85.76L438.025 85.7413L438.049 85.7217L436.8 84.16ZM440.16 84.44L438.624 85.7204L438.682 85.7901L438.746 85.8542L440.16 84.44ZM441 97.6H439V99.6H441V97.6ZM460.74 99.14L459.326 100.554L459.326 100.554L460.74 99.14ZM460.74 106.98L462.154 108.394L462.185 108.363L462.214 108.331L460.74 106.98ZM441 108.52V106.52H439V108.52H441ZM442.54 156.68L444.067 155.388L444.067 155.388L442.54 156.68ZM446.18 158.92L445.788 160.881L445.859 160.895L445.932 160.905L446.18 158.92ZM455 158.64L455.683 160.52L455.727 160.504L455.769 160.486L455 158.64ZM462 159.34L463.345 157.86L463.345 157.86L462 159.34ZM460.32 167.88L461.132 169.708L461.19 169.682L461.245 169.653L460.32 167.88ZM454.86 169.7L454.397 167.754L454.386 167.757L454.375 167.76L454.86 169.7ZM448.7 168.4C447.159 168.4 445.263 168.228 442.996 167.865L442.364 171.815C444.763 172.199 446.881 172.4 448.7 172.4V168.4ZM442.928 167.855C440.936 167.606 438.914 166.981 436.854 165.951L435.066 169.529C437.486 170.739 439.944 171.514 442.432 171.825L442.928 167.855ZM436.944 165.999C435.154 164.987 433.569 163.396 432.221 161.12L428.779 163.16C430.417 165.924 432.472 168.066 434.976 169.481L436.944 165.999ZM432.221 161.12C430.976 159.02 430.26 156.011 430.26 151.92H426.26C426.26 156.416 427.037 160.22 428.779 163.16L432.221 161.12ZM430.26 151.92V108.52H426.26V151.92H430.26ZM428.26 106.52H418.32V110.52H428.26V106.52ZM418.32 106.52C417.742 106.52 417.675 106.377 417.739 106.441C417.803 106.505 417.66 106.438 417.66 105.86H413.66C413.66 107.055 413.96 108.319 414.911 109.269C415.861 110.22 417.125 110.52 418.32 110.52V106.52ZM417.66 105.86C417.66 105.636 417.718 105.393 418.148 105.059L415.692 101.901C414.442 102.873 413.66 104.218 413.66 105.86H417.66ZM418.318 104.91L437.358 86.2899L434.562 83.4301L415.522 102.05L418.318 104.91ZM437.374 86.2742C437.462 86.1866 437.654 86.0192 438 85.76L435.6 82.56C435.199 82.8608 434.831 83.1601 434.546 83.4458L437.374 86.2742ZM438.049 85.7217C438.187 85.6116 438.266 85.6 438.34 85.6V81.6C437.294 81.6 436.346 81.9617 435.551 82.5983L438.049 85.7217ZM438.34 85.6C438.458 85.6 438.506 85.6207 438.517 85.6259C438.527 85.6305 438.563 85.6475 438.624 85.7204L441.696 83.1596C440.839 82.131 439.664 81.6 438.34 81.6V85.6ZM438.746 85.8542C438.956 86.0644 439 86.2184 439 86.4H443C443 85.0882 442.484 83.9356 441.574 83.0258L438.746 85.8542ZM439 86.4V97.6H443V86.4H439ZM441 99.6H456.82V95.6H441V99.6ZM456.82 99.6C457.93 99.6 458.711 99.9393 459.326 100.554L462.154 97.7258C460.716 96.2874 458.883 95.6 456.82 95.6V99.6ZM459.326 100.554C459.941 101.169 460.28 101.95 460.28 103.06H464.28C464.28 100.997 463.593 99.1642 462.154 97.7258L459.326 100.554ZM460.28 103.06C460.28 104.043 459.961 104.87 459.266 105.629L462.214 108.331C463.573 106.85 464.28 105.063 464.28 103.06H460.28ZM459.326 105.566C458.711 106.181 457.93 106.52 456.82 106.52V110.52C458.883 110.52 460.716 109.833 462.154 108.394L459.326 105.566ZM456.82 106.52H441V110.52H456.82V106.52ZM439 108.52V150.8H443V108.52H439ZM439 150.8C439 153.675 439.53 156.219 441.013 157.972L444.067 155.388C443.497 154.715 443 153.338 443 150.8H439ZM441.013 157.972C442.297 159.489 443.895 160.503 445.788 160.881L446.572 156.959C445.666 156.777 444.837 156.298 444.067 155.388L441.013 157.972ZM445.932 160.905C447.482 161.098 448.874 161.2 450.1 161.2V157.2C449.086 157.2 447.865 157.115 446.428 156.935L445.932 160.905ZM450.1 161.2C452.381 161.2 454.31 161.019 455.683 160.52L454.317 156.76C453.637 157.008 452.299 157.2 450.1 157.2V161.2ZM455.769 160.486C456.645 160.121 457.551 159.94 458.5 159.94V155.94C457.023 155.94 455.595 156.226 454.231 156.794L455.769 160.486ZM458.5 159.94C459.276 159.94 459.971 160.199 460.655 160.82L463.345 157.86C461.975 156.615 460.337 155.94 458.5 155.94V159.94ZM460.655 160.82C461.23 161.343 461.54 162.002 461.54 162.98H465.54C465.54 160.971 464.823 159.204 463.345 157.86L460.655 160.82ZM461.54 162.98C461.54 163.703 461.365 164.258 461.064 164.717C460.754 165.188 460.237 165.667 459.395 166.107L461.245 169.653C462.549 168.973 463.643 168.075 464.406 166.913C465.178 165.739 465.54 164.404 465.54 162.98H461.54ZM459.508 166.052C457.95 166.745 456.248 167.314 454.397 167.754L455.323 171.646C457.392 171.153 459.33 170.509 461.132 169.708L459.508 166.052ZM454.375 167.76C452.69 168.181 450.803 168.4 448.7 168.4V172.4C451.077 172.4 453.296 172.152 455.345 171.64L454.375 167.76ZM484.377 167.88L483.502 169.678L483.511 169.683L483.521 169.687L484.377 167.88ZM475.977 160.74L474.298 161.827L474.317 161.855L474.336 161.884L475.977 160.74ZM480.737 133.16L481.99 134.719L481.993 134.716L480.737 133.16ZM522.037 126.72V128.72H524.037V126.72H522.037ZM517.417 112.3L516.097 113.802L516.11 113.814L516.123 113.825L517.417 112.3ZM492.917 109.36L493.358 111.311L493.38 111.306L493.402 111.3L492.917 109.36ZM484.657 111.6L485.142 113.54L485.206 113.524L485.269 113.504L484.657 111.6ZM479.197 110.34L480.611 108.926L480.611 108.926L479.197 110.34ZM481.297 101.24L482.076 103.082L482.085 103.078L481.297 101.24ZM492.077 97.74L492.54 99.6856L492.557 99.6817L492.573 99.6776L492.077 97.74ZM522.177 100.26L523.244 98.5681L522.177 100.26ZM531.697 110.62L529.9 111.498L529.9 111.498L531.697 110.62ZM532.817 167.88L531.456 166.414L531.429 166.44L531.403 166.466L532.817 167.88ZM523.857 167.88L525.271 166.466L525.271 166.466L523.857 167.88ZM522.037 159.76H524.037V154.805L520.597 158.372L522.037 159.76ZM511.957 167.04L512.898 168.805L512.898 168.805L511.957 167.04ZM512.797 155.98L513.776 157.724L513.776 157.724L512.797 155.98ZM522.037 148.7L523.552 150.006L524.037 149.443V148.7H522.037ZM522.037 136.94H524.037V134.94H522.037V136.94ZM491.237 139.46L490.433 137.629L490.425 137.632L490.416 137.636L491.237 139.46ZM488.717 155.84L487.243 157.191L487.258 157.208L487.273 157.224L488.717 155.84ZM495.717 168.4C491.993 168.4 488.506 167.623 485.233 166.073L483.521 169.687C487.341 171.497 491.414 172.4 495.717 172.4V168.4ZM485.252 166.082C482.098 164.547 479.565 162.39 477.618 159.596L474.336 161.884C476.683 165.25 479.749 167.853 483.502 169.678L485.252 166.082ZM477.656 159.653C475.844 156.853 474.897 153.464 474.897 149.4H470.897C470.897 154.109 472.003 158.28 474.298 161.827L477.656 159.653ZM474.897 149.4C474.897 143.388 477.229 138.545 481.99 134.719L479.484 131.601C473.792 136.175 470.897 142.159 470.897 149.4H474.897ZM481.993 134.716C486.8 130.837 494.379 128.72 505.097 128.72V124.72C493.975 124.72 485.314 126.896 479.481 131.604L481.993 134.716ZM505.097 128.72H522.037V124.72H505.097V128.72ZM524.037 126.72V125.6H520.037V126.72H524.037ZM524.037 125.6C524.037 119.082 522.437 113.937 518.711 110.775L516.123 113.825C518.557 115.89 520.037 119.612 520.037 125.6H524.037ZM518.737 110.798C515.138 107.635 509.855 106.24 503.277 106.24V110.24C509.393 110.24 513.536 111.552 516.097 113.802L518.737 110.798ZM503.277 106.24C499.236 106.24 495.614 106.624 492.432 107.42L493.402 111.3C496.194 110.602 499.478 110.24 503.277 110.24V106.24ZM492.477 107.409C489.53 108.074 486.719 108.836 484.045 109.696L485.269 113.504C487.822 112.684 490.517 111.952 493.358 111.311L492.477 107.409ZM484.172 109.66C483.496 109.829 483.069 109.88 482.837 109.88V113.88C483.538 113.88 484.325 113.745 485.142 113.54L484.172 109.66ZM482.837 109.88C481.989 109.88 481.278 109.593 480.611 108.926L477.783 111.754C479.169 113.14 480.885 113.88 482.837 113.88V109.88ZM480.611 108.926C479.971 108.286 479.657 107.54 479.657 106.56H475.657C475.657 108.567 476.369 110.341 477.783 111.754L480.611 108.926ZM479.657 106.56C479.657 105.632 479.876 104.969 480.218 104.469C480.564 103.964 481.136 103.48 482.076 103.082L480.518 99.3981C479.032 100.027 477.784 100.943 476.916 102.211C476.045 103.484 475.657 104.968 475.657 106.56H479.657ZM482.085 103.078C485.234 101.729 488.717 100.596 492.54 99.6856L491.614 95.7944C487.597 96.7507 483.894 97.9512 480.509 99.4017L482.085 103.078ZM492.573 99.6776C496.396 98.6995 500.706 98.2 505.517 98.2V94.2C500.434 94.2 495.784 94.7272 491.581 95.8024L492.573 99.6776ZM505.517 98.2C512.079 98.2 517.228 99.5044 521.11 101.952L523.244 98.5681C518.539 95.6023 512.582 94.2 505.517 94.2V98.2ZM521.11 101.952C525.117 104.478 528.024 107.661 529.9 111.498L533.494 109.742C531.263 105.179 527.823 101.455 523.244 98.5681L521.11 101.952ZM529.9 111.498C531.823 115.431 532.777 119.518 532.777 123.78H536.777C536.777 118.895 535.678 114.209 533.494 109.742L529.9 111.498ZM532.777 123.78V163.4H536.777V123.78H532.777ZM532.777 163.4C532.777 164.614 532.358 165.577 531.456 166.414L534.178 169.346C535.89 167.756 536.777 165.733 536.777 163.4H532.777ZM531.403 166.466C530.578 167.29 529.6 167.7 528.337 167.7V171.7C530.621 171.7 532.629 170.896 534.231 169.294L531.403 166.466ZM528.337 167.7C527.074 167.7 526.096 167.29 525.271 166.466L522.443 169.294C524.045 170.896 526.053 171.7 528.337 171.7V167.7ZM525.271 166.466C524.447 165.641 524.037 164.663 524.037 163.4H520.037C520.037 165.684 520.841 167.692 522.443 169.294L525.271 166.466ZM524.037 163.4V159.76H520.037V163.4H524.037ZM520.597 158.372C518.26 160.796 515.085 163.105 511.016 165.275L512.898 168.805C517.229 166.495 520.774 163.951 523.477 161.148L520.597 158.372ZM511.016 165.275C507.197 167.312 502.137 168.4 495.717 168.4V172.4C502.55 172.4 508.317 171.248 512.898 168.805L511.016 165.275ZM500.477 161.2C505.206 161.2 509.65 160.039 513.776 157.724L511.819 154.236C508.291 156.215 504.521 157.2 500.477 157.2V161.2ZM513.776 157.724C517.76 155.489 521.036 152.924 523.552 150.006L520.522 147.394C518.371 149.89 515.487 152.178 511.819 154.236L513.776 157.724ZM524.037 148.7V136.94H520.037V148.7H524.037ZM522.037 134.94H506.777V138.94H522.037V134.94ZM506.777 134.94C500.106 134.94 494.615 135.793 490.433 137.629L492.041 141.291C495.512 139.767 500.381 138.94 506.777 138.94V134.94ZM490.416 137.636C488.273 138.6 486.546 139.957 485.365 141.758C484.182 143.562 483.637 145.675 483.637 148H487.637C487.637 146.312 488.026 144.994 488.71 143.952C489.395 142.906 490.467 142 492.058 141.284L490.416 137.636ZM483.637 148C483.637 151.497 484.858 154.59 487.243 157.191L490.191 154.489C488.47 152.61 487.637 150.477 487.637 148H483.637ZM487.273 157.224C490.01 160.08 494.653 161.2 500.477 161.2V157.2C494.914 157.2 491.717 156.08 490.161 154.456L487.273 157.224ZM557.95 167.88L559.365 166.466L559.365 166.466L557.95 167.88ZM557.95 68.06L559.365 69.4742L559.391 69.448L559.416 69.4209L557.95 68.06ZM566.91 68.06L565.445 69.4209L565.495 69.4752L565.549 69.5256L566.91 68.06ZM568.87 129.8H566.87V134.372L570.228 131.269L568.87 129.8ZM602.19 99L600.91 97.4636L600.87 97.4965L600.833 97.5313L602.19 99ZM604.01 97.74L603.116 95.9511L603.066 95.976L603.018 96.0035L604.01 97.74ZM611.29 99.28L609.575 100.309L609.591 100.336L609.608 100.362L611.29 99.28ZM612.13 105.44L614.003 106.142L614.016 106.108L614.028 106.072L612.13 105.44ZM610.17 108.1L611.505 109.59L611.546 109.553L611.585 109.514L610.17 108.1ZM590.01 126.16L588.676 124.67L587.307 125.897L588.414 127.364L590.01 126.16ZM615.35 159.76L613.754 160.964L613.759 160.972L613.765 160.979L615.35 159.76ZM614.93 168.02L613.574 166.55L613.574 166.55L614.93 168.02ZM605.13 167.04L603.519 168.225L603.558 168.278L603.6 168.328L605.13 167.04ZM581.05 134.28L582.662 133.095L581.348 131.308L579.706 132.799L581.05 134.28ZM568.87 145.34L567.526 143.859L566.87 144.455V145.34H568.87ZM566.91 167.88L565.549 166.414L565.522 166.44L565.496 166.466L566.91 167.88ZM562.43 167.7C561.168 167.7 560.189 167.29 559.365 166.466L556.536 169.294C558.138 170.896 560.146 171.7 562.43 171.7V167.7ZM559.365 166.466C558.54 165.641 558.13 164.663 558.13 163.4H554.13C554.13 165.684 554.934 167.692 556.536 169.294L559.365 166.466ZM558.13 163.4V72.54H554.13V163.4H558.13ZM558.13 72.54C558.13 71.2773 558.54 70.2987 559.365 69.4742L556.536 66.6458C554.934 68.248 554.13 70.2561 554.13 72.54H558.13ZM559.416 69.4209C560.253 68.5192 561.217 68.1 562.43 68.1V64.1C560.097 64.1 558.074 64.9875 556.485 66.6991L559.416 69.4209ZM562.43 68.1C563.644 68.1 564.607 68.5192 565.445 69.4209L568.376 66.6991C566.787 64.9875 564.763 64.1 562.43 64.1V68.1ZM565.549 69.5256C566.451 70.3629 566.87 71.3263 566.87 72.54H570.87C570.87 70.207 569.983 68.1838 568.271 66.5944L565.549 69.5256ZM566.87 72.54V129.8H570.87V72.54H566.87ZM570.228 131.269L603.548 100.469L600.833 97.5313L567.513 128.331L570.228 131.269ZM603.471 100.536C603.938 100.147 604.448 99.7936 605.003 99.4765L603.018 96.0035C602.266 96.4331 601.563 96.9195 600.91 97.4636L603.471 100.536ZM604.905 99.5289C605.372 99.2953 605.859 99.18 606.39 99.18V95.18C605.242 95.18 604.142 95.4381 603.116 95.9511L604.905 99.5289ZM606.39 99.18C608.485 99.18 609.253 99.7724 609.575 100.309L613.005 98.251C611.647 95.9876 609.149 95.18 606.39 95.18V99.18ZM609.608 100.362C610.264 101.382 610.55 102.365 610.55 103.34H614.55C614.55 101.515 613.997 99.7912 612.973 98.1985L609.608 100.362ZM610.55 103.34C610.55 103.597 610.48 104.067 610.233 104.808L614.028 106.072C614.341 105.133 614.55 104.202 614.55 103.34H610.55ZM610.258 104.738C610.129 105.08 609.72 105.722 608.756 106.686L611.585 109.514C612.674 108.425 613.571 107.294 614.003 106.142L610.258 104.738ZM608.836 106.61L588.676 124.67L591.345 127.65L611.505 109.59L608.836 106.61ZM588.414 127.364L613.754 160.964L616.947 158.556L591.607 124.956L588.414 127.364ZM613.765 160.979C614.477 161.905 614.75 162.747 614.75 163.54H618.75C618.75 161.72 618.09 160.041 616.936 158.541L613.765 160.979ZM614.75 163.54C614.75 164.929 614.321 165.86 613.574 166.55L616.287 169.49C617.966 167.94 618.75 165.884 618.75 163.54H614.75ZM613.574 166.55C612.779 167.284 611.745 167.7 610.31 167.7V171.7C612.609 171.7 614.655 170.996 616.287 169.49L613.574 166.55ZM610.31 167.7C609.05 167.7 607.85 167.165 606.66 165.752L603.6 168.328C605.397 170.462 607.651 171.7 610.31 171.7V167.7ZM606.742 165.855L582.662 133.095L579.439 135.465L603.519 168.225L606.742 165.855ZM579.706 132.799L567.526 143.859L570.215 146.821L582.395 135.761L579.706 132.799ZM566.87 145.34V163.4H570.87V145.34H566.87ZM566.87 163.4C566.87 164.614 566.451 165.577 565.549 166.414L568.271 169.346C569.983 167.756 570.87 165.733 570.87 163.4H566.87ZM565.496 166.466C564.672 167.29 563.693 167.7 562.43 167.7V171.7C564.714 171.7 566.722 170.896 568.325 169.294L565.496 166.466Z" fill="#2E3A19" mask="url(#path-3-outside-2_76_24)"/>
<path d="M20 55.4814C31.7934 54.3478 37.9745 50.4356 41.4621 46.9448C44.0054 44.4068 44.4313 42.9211 50.0114 35.7789C56.5 28.5 58 30 61.0899 29C63.998 29.9329 64.3944 39.4313 56.4319 47.1153C53.1053 50.3353 48.7807 51.9002 41.7948 54.4381C36.1502 56.4945 33.0919 56.8055 31.9973 56.8958C26.8679 57.3271 22.6398 56.334 20 55.4814Z" fill="#85A52B"/>
<path d="M50.5 52.7619L52.0231 55.3465L52.0231 55.3465L50.5 52.7619ZM57.5 14.5238L54.6412 15.4334L54.6412 15.4334L57.5 14.5238ZM62.8072 5.88937C64.4029 5.44357 65.3352 3.78857 64.8894 2.19281C64.4436 0.597058 62.7886 -0.335166 61.1928 0.110632L62.8072 5.88937ZM16.0593 60.9994C20.5542 60.9106 27.6826 60.5388 34.5242 59.7079C37.9443 59.2925 41.341 58.7567 44.324 58.0705C47.244 57.3989 50.015 56.5298 52.0231 55.3465L48.9769 50.1773C47.785 50.8797 45.7477 51.5864 42.9791 52.2232C40.2735 52.8455 37.1015 53.3508 33.8008 53.7516C27.2007 54.5533 20.2791 54.9148 15.9407 55.0006L16.0593 60.9994ZM52.0231 55.3465C61.0306 50.0385 65 40.0933 65 33.9048H59C59 38.1924 55.9694 46.0567 48.9769 50.1773L52.0231 55.3465ZM65 33.9048C65 31.3799 64.1464 27.3592 63.2221 23.6798C62.2667 19.8762 61.1236 16.018 60.3588 13.6142L54.6412 15.4334C55.3764 17.7439 56.4833 21.4809 57.4029 25.1416C58.3536 28.9265 59 32.2392 59 33.9048H65ZM60.3588 13.6142C59.8686 12.0735 59.6308 10.198 59.9827 8.70273C60.2816 7.43257 60.975 6.40122 62.8072 5.88937L61.1928 0.110632C57.025 1.27497 54.885 4.17219 54.1423 7.32823C53.4525 10.2592 53.9648 13.3074 54.6412 15.4334L60.3588 13.6142Z" fill="#33411B"/>
<path d="M14.0386 57.8063C12.0316 58.3322 26.2874 58.3322 26.2874 58.3322M14.0386 57.8063L26.2874 58.3322M14.0386 57.8063C19.5579 55.1771 22.9887 53.5984 29.0913 47.2866C35.6141 39.3975 41.4335 28.5026 59.6984 26.2466C59.6984 26.2466 78.5354 22.7449 91.0883 42.1215C103.641 61.4981 120.022 97.9241 120.022 97.9241C122.011 102.842 123.903 108.852 125.005 115.813C127.485 131.466 124.844 144.59 122.364 152.826C120.642 157.541 117.745 163.44 112.762 169.228C98.2951 186.004 77.2523 188.989 71.1683 189.637C71.1683 189.637 37.5941 194.645 14.6588 167.467C14.6588 167.467 -7.1859 146.492 8.92761 100.504C8.92761 100.504 21.3184 70.7798 26.2874 58.3322" stroke="#33411B" stroke-width="6" stroke-miterlimit="10"/>
<path d="M52.9957 111.443C45.4173 116.021 41.2401 123.244 39.9982 126.108C39.308 127.674 38 131.603 38 138.192C38 143.751 38.7402 148.025 41.286 152.376C43.9473 156.924 47.0918 158.896 51.9312 160.461C57.7263 162.336 61.4521 162.336 67.307 161.325C70.5456 160.766 73.2216 159.956 76.9473 157.429C80.3302 155.136 84.3392 149.339 84.8715 142.77C85.4038 136.2 84.3393 128.115 80.6134 121.04C77.9521 115.987 73.137 111.857 69.4709 110.345C65.8047 108.833 58.8505 107.906 52.9957 111.443Z" fill="#62442D" stroke="#62442D"/>
<path fill-rule="evenodd" clip-rule="evenodd" d="M41.3372 64.395C37.9048 65.2455 34.8257 65.7024 32.3197 65.9509C28.9741 74.7741 16.9582 104.426 16.9582 104.426C3.47957 144 21.7529 162.059 21.7529 162.059C40.9426 185.454 69.04 181.139 69.04 181.139C105.821 176.692 111.074 149.346 111.074 149.346C120.674 127.548 109.934 102.203 109.934 102.203C109.934 102.203 96.2316 70.8445 85.7257 54.1701C77.7163 41.4579 71.6168 37.6238 69.1702 36.5195C68.6246 38.8077 67.8759 41.609 67 43.4494C65.5 46.6014 63.6617 49.8857 62 51.8547C61.9076 51.9642 61.8173 52.0714 61.7286 52.1768L61.7248 52.1814C59.8958 54.354 58.729 55.74 53.2176 59.9687C49.006 62.4841 45.3437 63.3966 41.3894 64.382L41.3372 64.395ZM64.0004 162.698C73.5004 162.174 84.2005 155.974 85.0005 139.584C86.0005 119.096 78.0005 112.792 74.0005 109.64C70.0005 106.488 61.6783 103.955 53.5 107.536C47.5 110.164 42.4998 113.842 39 119.62C35.6797 125.103 33.0006 141.685 38.5006 151.141C44.0006 160.597 57.5004 163.224 64.0004 162.698Z" fill="#DBE082"/>
<defs>
<filter id="filter0_d_76_24" x="138.72" y="66.0996" width="272.202" height="143.801" filterUnits="userSpaceOnUse" color-interpolation-filters="sRGB">
<feFlood flood-opacity="0" result="BackgroundImageFix"/>
<feColorMatrix in="SourceAlpha" type="matrix" values="0 0 0 0 0 0 0 0 0 0 0 0 0 0 0 0 0 0 127 0" result="hardAlpha"/>
<feOffset dy="4"/>
<feGaussianBlur stdDeviation="2"/>
<feComposite in2="hardAlpha" operator="out"/>
<feColorMatrix type="matrix" values="0 0 0 0 0 0 0 0 0 0 0 0 0 0 0 0 0 0 0.25 0"/>
<feBlend mode="normal" in2="BackgroundImageFix" result="effect1_dropShadow_76_24"/>
<feBlend mode="normal" in="SourceGraphic" in2="effect1_dropShadow_76_24" result="shape"/>
</filter>
</defs>
</svg>
